<svg xmlns="http://www.w3.org/2000/svg" viewBox="0 0 441 345"><defs><style>.cls-1{fill:none;stroke:#f0c66f;stroke-width:15px;}.cls-2{fill:#f0c66f;fill-rule:evenodd;}</style></defs><g id="Layer_2" data-name="Layer 2"><g id="Layer_1-2" data-name="Layer 1"><rect class="cls-1" x="7.5" y="7.5" width="426" height="330"/><path class="cls-2" d="M162.87,296.94c-1.28-1.3-1.1-2.33-1.1-4.2l10.49-16.54c26.06-34.2,55.33-62.32,92.89-83.43,4.78-2.25,11.23-6,16.75-6.73-1.29,5.42-2.58,10.84-3.87,16.35-56.65,32.49-80.16,60.78-112.4,94.27A3.33,3.33,0,0,1,162.87,296.94Zm-64-38.12c2.57-11.12,9.11-19.71,16.57-28-.65-.65-.65-.65-3-5-6,9.45-13.35,17.52-20.16,25.22-4.33-4.39-9.48-8.59-12.71-13.83,8.75-9.81,18-19.43,24.58-30.92a63.25,63.25,0,0,1-5.89-48c4.17-13.8,18.39-24.33,32.49-15.61,17.5,16.17,4.61,48.87-6.44,64.94,3.41,7.75,3.41,7.75,3.87,7.94,5.34-7.85,10.59-15.7,15.19-24.1,2.39-5.61,2.39-5.61,6.17-16.26.46-2.06.92-4,1.37-6,21.27-11.22,21.27-11.22,21.91-11.22,0,1.5-.27,1.69-4.6,26.07l-7.73,39.9c-1.44,7.75,4.33.56,5.34-1.4,4-4.81,10.06,0,7,6.63-4.41,8.41-12.6,23.64-24.11,20.65-7.55-4.21-6-10.93-6-19.25.19-2.89,2.86-18.5,2.58-18.78-8.38,10.28-8.38,10.28-10.5,12.34.28,2.52,2.4,10.18,3.69,16.72,2.13,14.58-.67,30.67-13,39.43C107.94,289.2,96.47,274.89,98.9,258.82Zm21,7.2c-5.68-1.73-1.84-13.27,2.49-21H123C125.12,248.44,127.39,266,119.88,266Zm171.87-13c-10.13,1-16.58-7.41-14.54-20.37l26.14-116.32c-7.47-7.39-22.75-8.34-26.24,2.24-.7,14.39,11.5,21.58,9.21,37.65.19.19-.7,4.49-2.76,7.85-10.23,17.31-48,37.82-57.45,8.6l17.31-29.43c1.51-1,1.64,1.42,1.84,2.52,2.9,32.3,26.75,21.42,21.45,4A105.35,105.35,0,0,0,260,137.36c-5.26-16.39,1.58-26.69,15.84-32.51,13.9-4.49,37.37-8,47,6.72L299.07,223.5c-3.37,12.67.21,15.64,11.74-2.71,6.63-2.18,8.13,1.22,8.1,7C315.78,241.35,305.74,252,291.75,253ZM174.93,209.58c3.78-19.15,7.37-38.77,11.79-57.83,7.27-3.55,14.54-7,21.91-10.46-4.06,20.17-8.66,40.55-13.08,60.63-1.44,7.06,3.8,1.8,6.71-1.39,3.37-5.25,9.16-1.69,7.48,2.53C204,218.75,172.42,239.91,174.93,209.58Zm135.88-18.21c1.2-5.8,2.39-11.59,3.59-17.29,12.79-11.4,30.37-18.41,47-21.21,0,6.54-2.86,14.48-4.24,20.93-1.74.84-1.74.84-16.38,5.23C330.69,182.86,320.66,186.88,310.81,191.37ZM116.2,186c-1.69-7.81-2.11-14.5-.19-21.7,2.33-6.19,4.18-4.9,4.43.94.61,7.64-.56,12.8-3.6,20.76Zm32.22-21.73c-4.32-1.31-5.43-5.42-2.85-9.16,4.42-2.89,4.42-2.9,12.7-7.29-.48-.51-.71-.55-1.48-1.3-28.62-29.06,4.77-79.87,41.8-64.94,14.16,10.07,13.88,29.42,4.6,43.54,3.68-1.49,11.79-6.44,16.2-5.88,1.76,4.2.83,7.56-1.19,11.77-34.62,16.91-37.1,18.4-38.57,18.78l-28.45,14C150.26,163.9,149.34,164.08,148.42,164.27ZM170,141.57c1.38-2.72,2.85-5.42,4.33-8.13-6.08-9.81-13.35-26.17-1.2-34.39,6-3.58,11.75-2.26,14.08,3.74,1.94,5.08,1.46,16.85-4.23,19.25a21.86,21.86,0,0,1-5.52-.94c-5.47,4.79,2.07,16.38,10,11.4C186.53,134.37,171.07,141,170,141.57Zm60.85-31.77C280,84.67,280,84.67,288.16,80.74,276.93,79.06,265.33,77,254.1,75.6c-1.84,1.31-13.35,12.06-15.93,6.73.69-9.23,14.79-28.5,25.32-28.5,11.88,2.34,23.75,4.77,35.72,7.19,4.32-.74,6.81-2.7,10.31-5.32,3.45-4.86,12.69-7.73,10.22,1.5-3.5,4.11-7,8.31-10.41,12.52.83,0,7.09-3.08,9.12-3.74.83-.66.83-.66,22-10,8.56-3.32,8.65,9.39,3.22,12.14q-53.3,25.62-106.51,51.39C231.35,123.09,225.88,115.66,230.81,109.8Z"/></g></g></svg>