<?xml version="1.0" encoding="utf-8"?>
<!-- Generator: Adobe Illustrator 25.2.1, SVG Export Plug-In . SVG Version: 6.00 Build 0)  -->
<svg version="1.1" id="Layer_1" xmlns="http://www.w3.org/2000/svg" xmlns:xlink="http://www.w3.org/1999/xlink" x="0px" y="0px"
	 viewBox="0 0 441 345" style="enable-background:new 0 0 441 345;" xml:space="preserve">
<style type="text/css">
	.st0{fill:none;stroke:#F0C66F;stroke-width:15;}
	.st1{fill-rule:evenodd;clip-rule:evenodd;fill:#F0C66F;}
</style>
<g id="Layer_2_1_">
	<g id="Layer_1-2">
		<g>
			
				<image style="overflow:visible;opacity:0.75;" width="471" height="375" xlink:href="4EC1BCE0CD54FEA7.png"  transform="matrix(1 0 0 1 -15 -15)">
			</image>
			<g>
				<path class="st0" d="M29.8,7.5h381.3c12.3,0,22.3,10,22.3,22.3v285.3c0,12.3-10,22.3-22.3,22.3H29.8c-12.3,0-22.3-10-22.3-22.3
					V29.8C7.5,17.5,17.5,7.5,29.8,7.5z"/>
			</g>
		</g>
		<path class="st1" d="M162.9,294.9c-1.3-1.3-1.1-2.3-1.1-4.2l10.5-16.5c26.1-34.2,55.3-62.3,92.9-83.4c4.8-2.2,11.2-6,16.8-6.7
			c-1.3,5.4-2.6,10.8-3.9,16.4c-56.6,32.5-80.2,60.8-112.4,94.3C164.8,295.1,163.8,295.3,162.9,294.9z M98.9,256.8
			c2.6-11.1,9.1-19.7,16.6-28c-0.7-0.6-0.7-0.6-3-5c-6,9.4-13.3,17.5-20.2,25.2c-4.3-4.4-9.5-8.6-12.7-13.8
			c8.8-9.8,18-19.4,24.6-30.9c-8.2-14.6-10.4-31.9-5.9-48c4.2-13.8,18.4-24.3,32.5-15.6c17.5,16.2,4.6,48.9-6.4,64.9
			c3.4,7.8,3.4,7.8,3.9,7.9c5.3-7.9,10.6-15.7,15.2-24.1c2.4-5.6,2.4-5.6,6.2-16.3c0.5-2.1,0.9-4,1.4-6
			c21.3-11.2,21.3-11.2,21.9-11.2c0,1.5-0.3,1.7-4.6,26.1l-7.7,39.9c-1.4,7.8,4.3,0.6,5.3-1.4c4-4.8,10.1,0,7,6.6
			c-4.4,8.4-12.6,23.6-24.1,20.6c-7.6-4.2-6-10.9-6-19.2c0.2-2.9,2.9-18.5,2.6-18.8c-8.4,10.3-8.4,10.3-10.5,12.3
			c0.3,2.5,2.4,10.2,3.7,16.7c2.1,14.6-0.7,30.7-13,39.4C107.9,287.2,96.5,272.9,98.9,256.8L98.9,256.8z M119.9,264
			c-5.7-1.7-1.8-13.3,2.5-21h0.6C125.1,246.4,127.4,264,119.9,264L119.9,264z M291.7,251c-10.1,1-16.6-7.4-14.5-20.4l26.1-116.3
			c-7.5-7.4-22.8-8.3-26.2,2.2c-0.7,14.4,11.5,21.6,9.2,37.7c0.2,0.2-0.7,4.5-2.8,7.9c-10.2,17.3-48,37.8-57.4,8.6l17.3-29.4
			c1.5-1,1.6,1.4,1.8,2.5c2.9,32.3,26.7,21.4,21.4,4c-2-4.3-4.2-8.4-6.7-12.4c-5.3-16.4,1.6-26.7,15.8-32.5c13.9-4.5,37.4-8,47,6.7
			l-23.8,111.9c-3.4,12.7,0.2,15.6,11.7-2.7c6.6-2.2,8.1,1.2,8.1,7C315.8,239.3,305.7,250,291.7,251L291.7,251z M174.9,207.6
			c3.8-19.1,7.4-38.8,11.8-57.8c7.3-3.6,14.5-7,21.9-10.5c-4.1,20.2-8.7,40.6-13.1,60.6c-1.4,7.1,3.8,1.8,6.7-1.4
			c3.4-5.2,9.2-1.7,7.5,2.5C204,216.7,172.4,237.9,174.9,207.6z M310.8,189.4c1.2-5.8,2.4-11.6,3.6-17.3
			c12.8-11.4,30.4-18.4,47-21.2c0,6.5-2.9,14.5-4.2,20.9c-1.7,0.8-1.7,0.8-16.4,5.2C330.7,180.9,320.7,184.9,310.8,189.4z
			 M116.2,184c-1.7-7.8-2.1-14.5-0.2-21.7c2.3-6.2,4.2-4.9,4.4,0.9c0.6,7.6-0.6,12.8-3.6,20.8H116.2z M148.4,162.3
			c-4.3-1.3-5.4-5.4-2.9-9.2c4.4-2.9,4.4-2.9,12.7-7.3c-0.5-0.5-0.7-0.6-1.5-1.3c-28.6-29.1,4.8-79.9,41.8-64.9
			c14.2,10.1,13.9,29.4,4.6,43.5c3.7-1.5,11.8-6.4,16.2-5.9c1.8,4.2,0.8,7.6-1.2,11.8c-34.6,16.9-37.1,18.4-38.6,18.8l-28.4,14
			C150.3,161.9,149.3,162.1,148.4,162.3z M170,139.6c1.4-2.7,2.9-5.4,4.3-8.1c-6.1-9.8-13.4-26.2-1.2-34.4c6-3.6,11.8-2.3,14.1,3.7
			c1.9,5.1,1.5,16.8-4.2,19.2c-1.9-0.1-3.7-0.4-5.5-0.9c-5.5,4.8,2.1,16.4,10,11.4C186.5,132.4,171.1,139,170,139.6z M230.9,107.8
			C280,82.7,280,82.7,288.2,78.7c-11.2-1.7-22.8-3.7-34.1-5.1c-1.8,1.3-13.4,12.1-15.9,6.7c0.7-9.2,14.8-28.5,25.3-28.5
			c11.9,2.3,23.8,4.8,35.7,7.2c4.3-0.7,6.8-2.7,10.3-5.3c3.5-4.9,12.7-7.7,10.2,1.5c-3.5,4.1-7,8.3-10.4,12.5c0.8,0,7.1-3.1,9.1-3.7
			c0.8-0.7,0.8-0.7,22-10c8.6-3.3,8.6,9.4,3.2,12.1c-35.5,17.1-71,34.2-106.5,51.4C231.4,121.1,225.9,113.7,230.9,107.8L230.9,107.8
			z"/>
	</g>
</g>
</svg>
