<svg width="206" height="143" viewBox="0 0 206 143" fill="none" xmlns="http://www.w3.org/2000/svg">
<path d="M1 52.8178L91.6811 7.97548L204.617 74.7407V89.0238L124.233 142.17L1 65.1079V52.8178Z" fill="#F5F4F1" stroke="#37393B"/>
<path d="M124.566 126.558L1.33228 52.8178L79.7233 1L202.957 67.7652L124.566 126.558Z" fill="#F5F4F1"/>
<path d="M124.566 126.558L1.33228 52.8178L79.7233 1L202.957 67.7652L124.566 126.558ZM124.566 126.558V141.506" stroke="#37393B"/>
<path d="M124.565 126.891L204.285 75.0729" stroke="#37393B"/>
<path d="M124.565 128.219L204.285 76.4015" stroke="#37393B" stroke-linecap="round"/>
<path d="M124.565 129.548L204.285 77.7302" stroke="#37393B" stroke-linecap="round"/>
<path d="M124.565 130.877L204.285 79.0588" stroke="#37393B" stroke-linecap="round"/>
<path d="M124.565 132.205L204.285 80.3875" stroke="#37393B" stroke-linecap="round"/>
<path d="M124.565 133.534L204.285 81.7162" stroke="#37393B" stroke-linecap="round"/>
<path d="M124.565 134.863L204.285 83.0448" stroke="#37393B" stroke-linecap="round"/>
<path d="M124.565 136.191L204.285 84.3735" stroke="#37393B" stroke-linecap="round"/>
<path d="M124.565 137.52L204.285 85.7022" stroke="#37393B" stroke-linecap="round"/>
<path d="M124.565 138.849L204.285 87.0308" stroke="#37393B" stroke-linecap="round"/>
<path d="M124.565 140.177L204.285 88.3594" stroke="#37393B" stroke-linecap="round"/>
<path d="M94.3383 101.314L16.9438 53.8143L82.7126 9.63632L164.093 53.8143L94.3383 101.314Z" stroke="#37393B"/>
<path d="M113.272 98.9887L161.768 64.7757M119.583 103.971L155.125 78.3944M169.408 78.3944L187.677 64.7757M173.062 80.7196L190.334 67.7651M10.6328 63.447L113.272 125.23M69.7582 103.971L109.618 128.551" stroke="#37393B"/>
</svg>
