<svg width="171" height="119" viewBox="0 0 171 119" fill="none" xmlns="http://www.w3.org/2000/svg">
<path d="M1 44.0081L76.2643 6.78955L170 62.2039V74.0587L103.282 118.17L1 54.2088V44.0081Z" fill="white"/>
<path fill-rule="evenodd" clip-rule="evenodd" d="M76.2855 6.22119L170.5 61.9186V74.3275L103.29 118.764L0.5 54.4858V43.6975L76.2855 6.22119ZM1.5 44.3186V53.9317L103.275 117.575L169.5 73.7898V62.4891L76.243 7.35777L1.5 44.3186Z" fill="#37393B"/>
<path d="M103.558 105.212L1.27576 44.0082L66.3394 1L168.622 56.4144L103.558 105.212Z" fill="white"/>
<path fill-rule="evenodd" clip-rule="evenodd" d="M66.3138 0.41748L169.546 56.3463L104.058 105.462V117.618H103.058V105.496L0.337158 44.0292L66.3138 0.41748ZM103.527 104.611L167.698 56.4824L66.3649 1.58247L2.21431 43.9871L103.527 104.611Z" fill="#37393B"/>
<path fill-rule="evenodd" clip-rule="evenodd" d="M169.997 62.8987L103.83 105.907L103.285 105.068L169.452 62.0603L169.997 62.8987Z" fill="#37393B"/>
<path fill-rule="evenodd" clip-rule="evenodd" d="M170.143 63.3098C170.294 63.5414 170.228 63.8511 169.997 64.0016L103.83 107.01C103.599 107.16 103.289 107.095 103.139 106.863C102.988 106.631 103.054 106.322 103.285 106.171L169.452 63.1631C169.683 63.0126 169.993 63.0783 170.143 63.3098Z" fill="#37393B"/>
<path fill-rule="evenodd" clip-rule="evenodd" d="M170.143 64.4129C170.294 64.6444 170.228 64.9541 169.997 65.1046L103.83 108.113C103.599 108.263 103.289 108.198 103.139 107.966C102.988 107.734 103.054 107.425 103.285 107.274L169.452 64.2661C169.683 64.1156 169.993 64.1813 170.143 64.4129Z" fill="#37393B"/>
<path fill-rule="evenodd" clip-rule="evenodd" d="M170.143 65.5154C170.294 65.7469 170.228 66.0566 169.997 66.2071L103.83 109.215C103.599 109.366 103.289 109.3 103.139 109.069C102.988 108.837 103.054 108.527 103.285 108.377L169.452 65.3687C169.683 65.2182 169.993 65.2839 170.143 65.5154Z" fill="#37393B"/>
<path fill-rule="evenodd" clip-rule="evenodd" d="M170.143 66.6182C170.294 66.8497 170.228 67.1594 169.997 67.3099L103.83 110.318C103.599 110.469 103.289 110.403 103.139 110.171C102.988 109.94 103.054 109.63 103.285 109.48L169.452 66.4715C169.683 66.321 169.993 66.3867 170.143 66.6182Z" fill="#37393B"/>
<path fill-rule="evenodd" clip-rule="evenodd" d="M170.143 67.721C170.294 67.9525 170.228 68.2622 169.997 68.4127L103.83 111.421C103.599 111.571 103.289 111.506 103.139 111.274C102.988 111.043 103.054 110.733 103.285 110.582L169.452 67.5742C169.683 67.4238 169.993 67.4894 170.143 67.721Z" fill="#37393B"/>
<path fill-rule="evenodd" clip-rule="evenodd" d="M170.143 68.8235C170.294 69.055 170.228 69.3647 169.997 69.5152L103.83 112.523C103.599 112.674 103.289 112.608 103.139 112.377C102.988 112.145 103.054 111.835 103.285 111.685L169.452 68.6768C169.683 68.5263 169.993 68.592 170.143 68.8235Z" fill="#37393B"/>
<path fill-rule="evenodd" clip-rule="evenodd" d="M170.143 69.9265C170.294 70.1581 170.228 70.4678 169.997 70.6183L103.83 113.626C103.599 113.777 103.289 113.711 103.139 113.48C102.988 113.248 103.054 112.938 103.285 112.788L169.452 69.7798C169.683 69.6293 169.993 69.695 170.143 69.9265Z" fill="#37393B"/>
<path fill-rule="evenodd" clip-rule="evenodd" d="M170.143 71.0293C170.294 71.2609 170.228 71.5705 169.997 71.721L103.83 114.729C103.599 114.88 103.289 114.814 103.139 114.582C102.988 114.351 103.054 114.041 103.285 113.891L169.452 70.8826C169.683 70.7321 169.993 70.7978 170.143 71.0293Z" fill="#37393B"/>
<path fill-rule="evenodd" clip-rule="evenodd" d="M170.143 72.1321C170.294 72.3636 170.228 72.6733 169.997 72.8238L103.83 115.832C103.599 115.982 103.289 115.917 103.139 115.685C102.988 115.454 103.054 115.144 103.285 114.994L169.452 71.9854C169.683 71.8349 169.993 71.9006 170.143 72.1321Z" fill="#37393B"/>
<path fill-rule="evenodd" clip-rule="evenodd" d="M170.143 73.2349C170.294 73.4664 170.228 73.7761 169.997 73.9266L103.83 116.935C103.599 117.085 103.289 117.02 103.139 116.788C102.988 116.557 103.054 116.247 103.285 116.096L169.452 73.0882C169.683 72.9377 169.993 73.0034 170.143 73.2349Z" fill="#37393B"/>
<path fill-rule="evenodd" clip-rule="evenodd" d="M68.7931 7.58398L137.325 44.7868L78.4839 84.8545L13.3083 44.854L68.7931 7.58398ZM68.8481 8.75169L15.1583 44.8161L78.4557 83.6639L135.406 44.8833L68.8481 8.75169Z" fill="#37393B"/>
<path fill-rule="evenodd" clip-rule="evenodd" d="M93.9264 104.538L8.73718 53.2586L9.2529 52.4019L94.4421 103.681L93.9264 104.538ZM134.724 54.3416L94.4725 82.738L93.896 81.9209L134.147 53.5244L134.724 54.3416ZM156.238 54.3339L141.075 65.6373L140.478 64.8356L155.641 53.5321L156.238 54.3339ZM158.445 56.8142L144.109 67.5663L143.509 66.7663L157.845 56.0142L158.445 56.8142ZM129.214 65.6423L99.7145 86.8707L99.1304 86.059L128.63 64.8306L129.214 65.6423ZM90.8892 107.292L57.806 86.8904L58.3309 86.0392L91.4141 106.441L90.8892 107.292Z" fill="#37393B"/>
</svg>
