<svg width="194" height="122" viewBox="0 0 194 122" fill="none" xmlns="http://www.w3.org/2000/svg">
<path d="M29.1751 70.0345C26.032 69.4059 9.08209 62.7382 1 59.4829L59.2584 2.12251L61.6157 1C61.6531 1.11225 62.5586 1.62861 65.8812 2.79602C78.5656 8.18408 94.0563 8.40858 98.9953 8.74533C103.934 9.08209 102.924 8.96984 109.996 10.8781C115.653 12.4047 119.911 16.7526 121.333 18.7357C121.782 18.0248 122.95 16.4009 124.027 15.5927C125.374 14.5824 128.181 14.3579 129.415 14.4702C130.65 14.5824 136.824 15.0314 141.988 18.9602C147.151 22.889 157.815 28.1648 165.448 31.8691C171.555 34.8325 184.231 38.7164 189.807 40.2879L192.95 42.7575L158.601 121.221C146.365 116.731 133.12 111.231 124.252 106.741C119.055 104.109 100.006 92.2603 92.2602 87.7702C86.064 84.1782 80.2494 83.6543 78.1166 83.8414L75.4226 87.658L72.2795 87.3212C70.6706 85.7497 66.9139 82.2025 64.7587 80.5861C62.0647 78.5656 58.2481 76.7696 53.7581 75.1981C49.268 73.6266 33.1039 70.8203 29.1751 70.0345Z" fill="white"/>
<path fill-rule="evenodd" clip-rule="evenodd" d="M62.0461 0.710237L61.9112 0.30542L58.9675 1.70718L0.105713 59.6617L0.813202 59.9466C4.85613 61.575 11.1171 64.057 16.7614 66.2108C19.5833 67.2876 22.2535 68.2834 24.4163 69.0497C26.5641 69.8106 28.249 70.3592 29.077 70.5248C29.9147 70.6923 31.3242 70.9546 33.0608 71.2777C35.3733 71.708 38.2659 72.2462 41.1601 72.8123C46.2675 73.8113 51.3897 74.8988 53.5929 75.67C58.0623 77.2342 61.8239 79.01 64.4587 80.9861C66.584 82.5801 70.3186 86.1048 71.9302 87.6788L72.0541 87.7999L74.1959 88.0293L74.5506 88.4295L74.4834 88.0602L75.6616 88.1864L78.3885 84.3233C80.5932 84.2005 86.1172 84.7869 92.0095 88.2027C94.9708 89.9194 99.5876 92.7139 104.455 95.6598C105.944 96.5613 107.457 97.4771 108.953 98.3804C115.324 102.227 121.406 105.86 124.026 107.187C132.918 111.689 146.184 117.197 158.428 121.69L158.87 121.852L193.563 42.6034L190.038 39.8335L189.942 39.8066C184.362 38.2336 171.727 34.3603 165.666 31.4192C158.015 27.7059 147.405 22.4537 142.29 18.5622C137.152 14.6526 131.052 14.1131 129.578 13.9826C129.535 13.9788 129.496 13.9754 129.461 13.9722C128.795 13.9116 127.742 13.9429 126.682 14.1171C125.636 14.2891 124.5 14.6135 123.727 15.1926C122.824 15.8699 121.889 17.051 121.307 17.8778C119.531 15.6723 115.44 11.8292 110.126 10.3953C109.154 10.133 108.333 9.90823 107.626 9.71488C105.777 9.20892 104.714 8.91807 103.795 8.73228C102.587 8.48794 101.614 8.42193 99.4731 8.27661C99.3305 8.26693 99.1827 8.2569 99.0293 8.24644C98.4693 8.20826 97.7778 8.17154 96.9734 8.12883C90.6246 7.79169 77.2487 7.0814 66.0767 2.33577L66.062 2.32953L66.047 2.32424C64.3921 1.74282 63.3494 1.32702 62.7206 1.04583C62.4051 0.904756 62.2023 0.801306 62.0816 0.7313C62.0684 0.723603 62.0566 0.716585 62.0461 0.710237ZM74.2969 87.0344L75.1836 87.1294L77.8419 83.3635L78.0729 83.3433C80.3086 83.1472 86.226 83.6941 92.511 87.3376C95.4812 89.0595 100.111 91.8615 104.98 94.8087C106.468 95.7092 107.978 96.6234 109.47 97.5244C115.859 101.382 121.9 104.99 124.478 106.295C133.215 110.718 146.23 116.133 158.331 120.589L192.336 42.9115L189.993 41.0703L155.549 118.318C155.547 118.39 155.529 118.471 155.481 118.554C155.38 118.728 155.219 118.777 155.171 118.789C155.108 118.805 155.056 118.806 155.033 118.806C154.983 118.805 154.94 118.798 154.919 118.794L154.293 118.681L154.368 118.511C154.248 118.456 154.099 118.39 153.918 118.312C153.375 118.078 152.554 117.736 151.369 117.255C149 116.295 145.183 114.786 139.225 112.483C123.038 106.224 104.799 94.6992 96.8943 89.7049C96.5504 89.4876 96.226 89.2827 95.9223 89.0911C88.6849 84.5259 82.3575 82.8696 79.5186 82.542C76.7227 82.2194 75.3124 82.9749 74.5414 83.7459C74.3212 83.9661 74.1769 84.4358 74.1368 85.0685C74.0987 85.6694 74.1616 86.2903 74.2307 86.6704L74.2969 87.0344ZM154.776 117.597L189.104 40.6083C183.279 38.9463 171.182 35.2073 165.23 32.3189C157.615 28.6237 146.897 23.3242 141.685 19.3581C136.78 15.6265 130.926 15.1064 129.479 14.9778C129.439 14.9743 129.403 14.9711 129.37 14.9681C128.801 14.9163 127.834 14.9412 126.845 15.1038C125.842 15.2686 124.902 15.5615 124.327 15.9926C123.327 16.7427 122.2 18.2998 121.756 19.0026L121.36 19.6304L120.927 19.027C119.547 17.1016 115.375 12.8476 109.866 11.3608C108.868 11.0915 108.033 10.8632 107.321 10.6684C105.497 10.1692 104.48 9.89108 103.597 9.71243C102.455 9.48159 101.55 9.4201 99.3637 9.27151C99.2342 9.2627 99.1002 9.2536 98.9613 9.24413C98.4136 9.20678 97.7321 9.1708 96.9356 9.12876C90.613 8.79496 77.0495 8.0789 65.7004 3.26242C64.0412 2.67915 62.9743 2.25474 62.3124 1.95872C62.0386 1.83628 61.8282 1.73323 61.6711 1.64757L4.44724 58.0967C8.47454 59.9411 14.8231 62.6133 21.5652 64.9915C28.6948 67.5063 36.2234 69.6774 41.9061 70.2101C49.1611 70.8903 55.4194 73.0717 60.0321 75.2365C64.6339 77.3962 67.6286 79.5545 68.3518 80.2175C69.2449 81.0362 71.523 83.5338 73.1263 85.3219C73.128 85.2168 73.1321 85.1109 73.1388 85.0052C73.181 84.3395 73.3361 83.537 73.8343 83.0388C74.8592 82.0138 76.592 81.1977 79.6332 81.5486C82.6312 81.8946 89.1005 83.6058 96.4558 88.2453C96.7566 88.435 97.0774 88.6377 97.417 88.8523C105.327 93.8498 123.494 105.328 139.586 111.55C145.545 113.854 149.369 115.366 151.745 116.329C152.933 116.81 153.761 117.155 154.315 117.394C154.496 117.473 154.649 117.54 154.776 117.597ZM2.78358 58.4284L1.89458 59.3037C5.93317 60.926 11.8006 63.2474 17.1179 65.2765C19.9367 66.3521 22.5984 67.3446 24.7503 68.1071C26.9172 68.8748 28.5296 69.3955 29.2731 69.5442C30.1202 69.7136 31.5204 69.9741 33.2472 70.2953C35.5477 70.7232 38.4278 71.2589 41.3521 71.8309C46.4315 72.8244 51.6364 73.9257 53.9233 74.7261C58.434 76.3049 62.3054 78.1211 65.0587 80.1861C67.1893 81.7841 70.8351 85.2177 72.5047 86.8424L73.2107 86.9181C71.6855 85.2013 68.6942 81.8879 67.6761 80.9547C67.0524 80.3829 64.1539 78.2756 59.6072 76.1418C55.0714 74.013 48.926 71.8726 41.8128 71.2058C36.001 70.6609 28.3757 68.4542 21.2325 65.9345C14.0796 63.4115 7.36901 60.5597 3.37104 58.7015L2.78358 58.4284Z" fill="#37393B"/>
<path fill-rule="evenodd" clip-rule="evenodd" d="M121.628 18.444C121.851 18.6069 121.9 18.9197 121.737 19.1426L74.2548 84.1361C74.0919 84.3591 73.7791 84.4078 73.5561 84.2449C73.3331 84.082 73.2844 83.7692 73.4473 83.5462L120.93 18.5527C121.092 18.3298 121.405 18.2811 121.628 18.444ZM4.14511 58.0321C4.26426 58.2813 4.15889 58.5798 3.90977 58.6989L1.328 59.9337C1.07888 60.0528 0.780344 59.9475 0.661201 59.6984C0.542058 59.4492 0.647423 59.1507 0.89654 59.0316L3.47832 57.7968C3.72744 57.6777 4.02597 57.783 4.14511 58.0321Z" fill="#37393B"/>
<path fill-rule="evenodd" clip-rule="evenodd" d="M28.6062 33.9651C28.8743 33.8989 29.1453 34.0626 29.2115 34.3307C30.331 38.8649 32.336 46.039 34.7095 52.8151C35.8962 56.2033 37.1726 59.4848 38.4738 62.284C39.7793 65.0924 41.0938 67.3797 42.3473 68.8061C42.5296 69.0136 42.5092 69.3295 42.3017 69.5118C42.0943 69.6941 41.7784 69.6737 41.5961 69.4662C40.2454 67.9292 38.8826 65.5357 37.567 62.7055C36.2472 59.8662 34.9587 56.5516 33.7657 53.1457C31.3797 46.3338 29.3661 39.1285 28.2406 34.5704C28.1744 34.3023 28.3381 34.0313 28.6062 33.9651Z" fill="#37393B"/>
<path fill-rule="evenodd" clip-rule="evenodd" d="M57.7869 11.2918C58.0543 11.223 58.3269 11.384 58.3956 11.6515C61.6131 24.1637 68.0854 36.9911 70.9152 41.8315L70.9336 41.863L70.9473 41.8968C71.4123 43.0502 72.1889 44.8826 73.0046 46.6257C73.8222 48.3728 74.6538 49.9739 75.2415 50.7382L85.3993 48.2228C85.4002 48.2225 85.4012 48.2223 85.4021 48.222C88.1353 47.5107 92.2564 46.4608 95.7409 45.6219C97.483 45.2025 99.0702 44.8349 100.246 44.5887C100.833 44.4659 101.325 44.3718 101.685 44.3167C101.863 44.2895 102.021 44.27 102.146 44.2628C102.207 44.2593 102.275 44.2577 102.34 44.2631C102.372 44.2658 102.415 44.271 102.462 44.2829C102.502 44.2933 102.582 44.3175 102.663 44.3779C102.884 44.5435 102.929 44.8569 102.763 45.0779C102.636 45.2472 102.422 45.313 102.23 45.2599C102.223 45.2602 102.214 45.2605 102.203 45.2611C102.125 45.2657 102.004 45.2796 101.836 45.3053C101.503 45.3561 101.033 45.4458 100.451 45.5675C99.29 45.8106 97.7145 46.1754 95.9749 46.5942C92.4973 47.4313 88.3809 48.48 85.6511 49.1905L85.6454 49.192L60.1025 55.5175C60.002 55.5864 59.8806 55.6153 59.7623 55.6017L38.0509 60.9784C37.7828 61.0448 37.5117 60.8813 37.4453 60.6132C37.379 60.3452 37.5424 60.0741 37.8105 60.0077L59.5716 54.6187L69.1519 42.9207L48.8971 47.8245L48.7147 47.4829C43.7357 38.1586 41.2925 26.2005 40.6898 21.3794C40.6556 21.1054 40.8499 20.8555 41.124 20.8212C41.398 20.787 41.6479 20.9813 41.6821 21.2553C42.2695 25.9541 44.6381 37.5455 49.4161 46.6699L69.7166 41.7551C66.7117 36.4834 60.554 24.0606 57.4272 11.9005C57.3584 11.6331 57.5194 11.3605 57.7869 11.2918ZM70.3388 43.0497L61.193 54.2172L74.1975 50.9968C73.5711 50.0672 72.8099 48.5688 72.0989 47.0496C71.4396 45.6407 70.8065 44.1764 70.3388 43.0497ZM31.2354 43.3256C31.2935 43.5955 31.1218 43.8615 30.8519 43.9196C24.9856 45.1831 19.3841 45.7249 17.3037 45.8384C17.028 45.8534 16.7922 45.6421 16.7772 45.3664C16.7622 45.0906 16.9735 44.8549 17.2492 44.8399C19.2847 44.7288 24.8335 44.193 30.6413 42.9421C30.9113 42.8839 31.1773 43.0556 31.2354 43.3256ZM11.1775 50.5653C11.4529 50.5447 11.6928 50.7512 11.7135 51.0265C11.8252 52.5162 12.0432 54.858 12.3335 57.037C12.4787 58.1268 12.6412 59.1701 12.8164 60.0432C12.9945 60.9304 13.1773 61.597 13.3505 61.9628C13.4687 62.2123 13.3623 62.5105 13.1127 62.6287C12.8631 62.7469 12.565 62.6404 12.4468 62.3908C12.2159 61.9034 12.0143 61.1287 11.836 60.2399C11.6548 59.3371 11.4889 58.27 11.3423 57.1691C11.0488 54.9665 10.8291 52.605 10.7163 51.1013C10.6956 50.826 10.9021 50.586 11.1775 50.5653Z" fill="#37393B"/>
<path fill-rule="evenodd" clip-rule="evenodd" d="M59.5853 54.6634C59.8292 54.534 60.1319 54.6268 60.2613 54.8707C61.2358 56.7073 62.7534 59.6301 64.1404 62.4322C65.3803 64.937 66.5319 67.3772 67.0882 68.8525C74.6168 67.1375 82.6122 65.4278 87.359 64.7133C87.6321 64.6722 87.8868 64.8602 87.9279 65.1333C87.969 65.4063 87.7809 65.661 87.5079 65.7021C82.74 66.4199 74.6492 68.1533 67.0654 69.8834C67.027 69.9102 66.9841 69.932 66.9373 69.9476C66.858 69.974 66.7767 69.9795 66.6995 69.9669C61.1775 71.2293 55.9584 72.4811 52.5308 73.3262C52.2627 73.3923 51.9917 73.2286 51.9256 72.9605C51.8595 72.6924 52.0233 72.4214 52.2914 72.3553C55.6381 71.5301 60.7073 70.3136 66.1039 69.0774C65.5559 67.6569 64.4583 65.3286 63.2442 62.8758C61.8623 60.084 60.3492 57.1697 59.378 55.3394C59.2485 55.0955 59.3414 54.7928 59.5853 54.6634Z" fill="#37393B"/>
<path fill-rule="evenodd" clip-rule="evenodd" d="M112.502 50.0044L112.872 50.1493C119.62 52.7919 127.85 56.7195 135.661 60.4471C137.164 61.1646 138.652 61.8748 140.111 62.5669C144.636 64.7137 148.882 66.6875 152.456 68.1804C156.049 69.6808 158.907 70.67 160.681 70.885L161.372 70.9687L148.511 97.9762L148.06 97.7636C139.555 93.7511 132.731 90.2956 126.255 87.016C117.161 82.411 108.752 78.1529 97.3366 73.1869L96.7812 72.9453L112.502 50.0044ZM112.877 51.226L98.2906 72.5118C109.436 77.3795 117.773 81.6003 126.751 86.1458C133.114 89.3676 139.8 92.7525 148.036 96.6465L159.882 71.7707C157.964 71.4068 155.255 70.4329 152.071 69.1031C148.472 67.6003 144.208 65.6173 139.683 63.4704C138.218 62.7755 136.726 62.0635 135.22 61.3448C127.551 57.6848 119.518 53.8515 112.877 51.226ZM123.465 61.6231C123.584 61.3743 123.883 61.2697 124.132 61.3895L142.317 70.1451C142.565 70.2649 142.67 70.5637 142.55 70.8125C142.43 71.0613 142.132 71.1659 141.883 71.0461L123.698 62.2905C123.449 62.1707 123.345 61.8719 123.465 61.6231Z" fill="#37393B"/>
<path fill-rule="evenodd" clip-rule="evenodd" d="M129.639 61.3969C129.76 61.1486 130.06 61.0454 130.308 61.1663L139.063 65.4319C139.312 65.5528 139.415 65.8521 139.294 66.1004C139.173 66.3486 138.874 66.4518 138.626 66.3309L129.87 62.0653C129.622 61.9444 129.518 61.6451 129.639 61.3969Z" fill="#37393B"/>
<path fill-rule="evenodd" clip-rule="evenodd" d="M109.653 59.501C109.767 59.2495 110.063 59.138 110.315 59.252L153.419 78.7837C153.671 78.8977 153.782 79.194 153.668 79.4455C153.554 79.697 153.258 79.8085 153.006 79.6945L109.902 60.1628C109.65 60.0489 109.539 59.7526 109.653 59.501Z" fill="#37393B"/>
<path fill-rule="evenodd" clip-rule="evenodd" d="M109.204 60.399C109.318 60.1475 109.614 60.0359 109.866 60.1499L152.97 79.6816C153.222 79.7956 153.333 80.0919 153.219 80.3434C153.105 80.595 152.809 80.7065 152.557 80.5925L109.453 61.0608C109.201 60.9468 109.09 60.6505 109.204 60.399Z" fill="#37393B"/>
<path fill-rule="evenodd" clip-rule="evenodd" d="M108.306 61.5215C108.42 61.27 108.716 61.1585 108.968 61.2725L152.072 80.8042C152.324 80.9182 152.435 81.2145 152.321 81.466C152.207 81.7175 151.911 81.829 151.659 81.715L108.555 62.1833C108.303 62.0694 108.192 61.7731 108.306 61.5215Z" fill="#37393B"/>
<path fill-rule="evenodd" clip-rule="evenodd" d="M107.632 62.6441C107.746 62.3926 108.043 62.2811 108.294 62.395L151.399 81.9268C151.65 82.0407 151.762 82.337 151.648 82.5885C151.534 82.8401 151.237 82.9516 150.986 82.8376L107.881 63.3059C107.63 63.1919 107.518 62.8956 107.632 62.6441Z" fill="#37393B"/>
<path fill-rule="evenodd" clip-rule="evenodd" d="M106.959 63.7667C107.073 63.5151 107.369 63.4036 107.621 63.5176L150.725 83.0493C150.977 83.1633 151.088 83.4596 150.974 83.7111C150.86 83.9626 150.564 84.0741 150.312 83.9602L107.208 64.4284C106.956 64.3145 106.845 64.0182 106.959 63.7667Z" fill="#37393B"/>
<path fill-rule="evenodd" clip-rule="evenodd" d="M104.717 66.679C104.834 66.429 105.132 66.3215 105.382 66.4389L149.384 87.0931C149.634 87.2104 149.742 87.5082 149.624 87.7582C149.507 88.0081 149.209 88.1157 148.959 87.9983L104.957 67.3441C104.707 67.2268 104.599 66.929 104.717 66.679Z" fill="#37393B"/>
<path fill-rule="evenodd" clip-rule="evenodd" d="M104.043 67.8003C104.161 67.5506 104.459 67.4438 104.709 67.5616L148.936 88.4404C149.186 88.5583 149.293 88.8563 149.175 89.106C149.057 89.3557 148.759 89.4626 148.509 89.3447L104.282 68.4659C104.032 68.3481 103.926 68.0501 104.043 67.8003Z" fill="#37393B"/>
<path fill-rule="evenodd" clip-rule="evenodd" d="M139.632 91.3632C139.756 91.1162 140.056 91.0161 140.303 91.1396L145.915 93.9458C146.162 94.0693 146.263 94.3697 146.139 94.6167C146.016 94.8637 145.715 94.9638 145.468 94.8403L139.856 92.034C139.609 91.9105 139.509 91.6102 139.632 91.3632Z" fill="#37393B"/>
</svg>
