<svg width="217" height="175" viewBox="0 0 217 175" fill="none" xmlns="http://www.w3.org/2000/svg">
<path d="M1 173.739V23.2093L216.043 2.41013V148.886L1 173.739Z" fill="#F5F4F1" stroke="#37393B"/>
<path d="M215.161 1.70503L1 23.2093L215.161 2.41009V1.70503Z" fill="#F5F4F1" stroke="#37393B"/>
<path d="M214.456 1L1 23.2093L214.456 1.70506V1Z" fill="#F5F4F1" stroke="#37393B"/>
<path d="M12.1046 156.818V34.4902L206.348 12.4572V136.019L12.1046 156.818Z" stroke="#37393B"/>
<path d="M33.609 58.6386L113.556 49.2384" stroke="#37393B"/>
<path d="M33.6183 75.4249L93.8014 68.0743" stroke="#37393B"/>
<path d="M142.893 108.698L197.006 103.41" stroke="#37393B"/>
<path d="M142.893 113.986L197.006 108.698" stroke="#37393B"/>
<path d="M142.893 119.273L197.006 113.986" stroke="#37393B"/>
<path d="M142.893 124.561L197.006 119.274" stroke="#37393B"/>
<path d="M142.893 129.849L197.006 124.561" stroke="#37393B"/>
<path d="M142.893 135.137L197.006 129.849" stroke="#37393B"/>
<path d="M22.5924 148.012V44.1848L131.933 30.8618V136.067L22.5924 148.012Z" stroke="#37393B"/>
</svg>
