<svg width="187" height="108" viewBox="0 0 187 108" fill="none" xmlns="http://www.w3.org/2000/svg">
<path d="M0.000923157 56.3159L61.5045 20.8099L150.818 72.3708L89.3148 107.877L0.000923157 56.3159Z" fill="white"/>
<path fill-rule="evenodd" clip-rule="evenodd" d="M61.5045 21.8098L1.73301 56.3159L89.3148 106.877L149.086 72.3708L61.5045 21.8098ZM0.000923157 56.3159L89.3148 107.877L150.818 72.3708L61.5045 20.8099L0.000923157 56.3159Z" fill="#37393B"/>
<path fill-rule="evenodd" clip-rule="evenodd" d="M61.5036 24.8968L7.08025 56.3154L15.5096 61.1817L69.933 29.7631L61.5036 24.8968ZM5.34816 56.3154L15.5096 62.1816L71.6651 29.7631L61.5036 23.8969L5.34816 56.3154Z" fill="#37393B"/>
<path fill-rule="evenodd" clip-rule="evenodd" d="M139.587 69.974L85.1631 101.393L87.7096 102.863L142.133 71.444L139.587 69.974ZM83.4311 101.393L87.7096 103.863L143.865 71.444L139.587 68.974L83.4311 101.393Z" fill="#37393B"/>
<path fill-rule="evenodd" clip-rule="evenodd" d="M31.9871 55.0216L18.0819 63.049L17.2159 62.5491L31.121 54.5216L31.9871 55.0216Z" fill="#37393B"/>
<path fill-rule="evenodd" clip-rule="evenodd" d="M125.045 84.6615L111.14 92.6889L110.274 92.189L124.179 84.1615L125.045 84.6615Z" fill="#37393B"/>
<path fill-rule="evenodd" clip-rule="evenodd" d="M56.0537 41.1281L34.6612 53.478L33.7951 52.978L55.1877 40.6281L56.0537 41.1281Z" fill="#37393B"/>
<path fill-rule="evenodd" clip-rule="evenodd" d="M59.2626 30.0131L20.2212 52.5517L19.3551 52.0518L58.3965 29.5131L59.2626 30.0131Z" fill="#37393B"/>
<path fill-rule="evenodd" clip-rule="evenodd" d="M48.0315 39.5843L22.8953 54.0954L22.0293 53.5955L47.1655 39.0843L48.0315 39.5843Z" fill="#37393B"/>
<path fill-rule="evenodd" clip-rule="evenodd" d="M72.633 31.5569L59.2626 39.2756L58.3966 38.7756L71.7669 31.0569L72.633 31.5569Z" fill="#37393B"/>
<path d="M67.3866 17.4131L90.9184 3.82817L105.358 12.1644L81.8266 25.7493L67.3866 17.4131Z" fill="white"/>
<path fill-rule="evenodd" clip-rule="evenodd" d="M90.9184 4.82811L69.1187 17.4131L81.8266 24.7493L103.626 12.1644L90.9184 4.82811ZM67.3866 17.4131L81.8266 25.7493L105.358 12.1644L90.9184 3.82817L67.3866 17.4131Z" fill="#37393B"/>
<path fill-rule="evenodd" clip-rule="evenodd" d="M96.6996 12.7232L82.7944 20.7507L81.9283 20.2507L95.8335 12.2233L96.6996 12.7232Z" fill="#37393B"/>
<path fill-rule="evenodd" clip-rule="evenodd" d="M96.6996 14.576L86.0033 20.7509L85.1373 20.251L95.8335 14.076L96.6996 14.576Z" fill="#37393B"/>
<path d="M87.7095 11.8558C89.4817 12.8789 89.4817 14.5376 87.7095 15.5607C85.9373 16.5838 83.0639 16.5838 81.2917 15.5607C79.5195 14.5376 79.5195 12.8789 81.2917 11.8558C83.0639 10.8327 85.9373 10.8327 87.7095 11.8558Z" fill="white"/>
<path fill-rule="evenodd" clip-rule="evenodd" d="M86.8434 15.0608C88.1374 14.3138 88.1374 13.1027 86.8434 12.3557C85.5495 11.6088 83.4517 11.6088 82.1578 12.3557C80.8639 13.1027 80.8639 14.3138 82.1578 15.0608C83.4517 15.8077 85.5495 15.8077 86.8434 15.0608ZM87.7095 15.5607C89.4817 14.5376 89.4817 12.8789 87.7095 11.8558C85.9373 10.8327 83.0639 10.8327 81.2917 11.8558C79.5195 12.8789 79.5195 14.5376 81.2917 15.5607C83.0639 16.5838 85.9373 16.5838 87.7095 15.5607Z" fill="#37393B"/>
<path d="M18.7186 54.1543C20.4908 55.1774 20.4908 56.8362 18.7186 57.8593C16.9463 58.8824 14.073 58.8824 12.3008 57.8593C10.5286 56.8362 10.5286 55.1774 12.3008 54.1543C14.073 53.1312 16.9463 53.1312 18.7186 54.1543Z" fill="white"/>
<path fill-rule="evenodd" clip-rule="evenodd" d="M17.8525 57.3594C19.1464 56.6124 19.1464 55.4013 17.8525 54.6543C16.5586 53.9073 14.4607 53.9073 13.1668 54.6543C11.8729 55.4013 11.8729 56.6124 13.1668 57.3594C14.4607 58.1063 16.5586 58.1063 17.8525 57.3594ZM18.7186 57.8593C20.4908 56.8362 20.4908 55.1774 18.7186 54.1543C16.9463 53.1312 14.073 53.1312 12.3008 54.1543C10.5286 55.1774 10.5286 56.8362 12.3008 57.8593C14.073 58.8824 16.9463 58.8824 18.7186 57.8593Z" fill="#37393B"/>
<path d="M114.985 10.3118L176.489 45.8178L146.539 63.1077L85.0355 27.6017L114.985 10.3118Z" fill="white"/>
<path fill-rule="evenodd" clip-rule="evenodd" d="M174.757 45.8178L114.985 11.3117L86.7676 27.6017L146.539 62.1078L174.757 45.8178ZM114.985 10.3118L85.0355 27.6017L146.539 63.1077L176.489 45.8178L114.985 10.3118Z" fill="#37393B"/>
<path d="M164.455 44.4288C166.08 45.3667 166.08 46.8872 164.455 47.8251C162.831 48.7629 160.197 48.7629 158.572 47.8251C156.948 46.8872 156.948 45.3667 158.572 44.4288C160.197 43.491 162.831 43.491 164.455 44.4288Z" fill="white"/>
<path fill-rule="evenodd" clip-rule="evenodd" d="M163.589 47.3251C164.736 46.6634 164.736 45.5905 163.589 44.9288C162.443 44.2671 160.585 44.2671 159.438 44.9288C158.292 45.5905 158.292 46.6634 159.438 47.3251C160.585 47.9868 162.443 47.9868 163.589 47.3251ZM164.455 47.8251C166.08 46.8872 166.08 45.3667 164.455 44.4288C162.831 43.491 160.197 43.491 158.572 44.4288C156.948 45.3667 156.948 46.8872 158.572 47.8251C160.197 48.7629 162.831 48.7629 164.455 47.8251Z" fill="#37393B"/>
<path fill-rule="evenodd" clip-rule="evenodd" d="M141.088 35.9961L155.528 44.3323L154.662 44.8323L140.222 36.4961L141.088 35.9961Z" fill="#37393B"/>
<path fill-rule="evenodd" clip-rule="evenodd" d="M146.026 36.9948L157.134 43.4073L156.268 43.9072L145.16 37.4948L146.026 36.9948Z" fill="#37393B"/>
<path fill-rule="evenodd" clip-rule="evenodd" d="M107.09 19.5744L161.514 50.993L169.943 46.1267L115.52 14.7081L107.09 19.5744ZM161.514 51.9929L171.675 46.1267L115.52 13.7082L105.358 19.5744L161.514 51.9929Z" fill="#37393B"/>
<path fill-rule="evenodd" clip-rule="evenodd" d="M121.772 20.2875L115.354 16.5825L116.22 16.0826L122.638 19.7875L121.772 20.2875Z" fill="#37393B"/>
<path fill-rule="evenodd" clip-rule="evenodd" d="M128.992 24.4557L122.574 20.7507L123.44 20.2508L129.858 23.9557L128.992 24.4557Z" fill="#37393B"/>
<path fill-rule="evenodd" clip-rule="evenodd" d="M136.479 28.7782L130.062 25.0732L130.928 24.5733L137.345 28.2783L136.479 28.7782Z" fill="#37393B"/>
</svg>
