<svg width="328" height="190" viewBox="0 0 328 190" fill="none" xmlns="http://www.w3.org/2000/svg">
<rect x="0.866044" width="123.747" height="180.155" transform="matrix(0.866044 -0.499967 0.866044 0.499967 0.116256 99.1399)" fill="#F5F4F1" stroke="#37393B"/>
<rect x="0.866044" width="112.9" height="19.6104" transform="matrix(0.866044 -0.499967 0.866044 0.499967 9.5103 99.1397)" stroke="#37393B"/>
<rect x="0.866044" width="112.9" height="7.67808" transform="matrix(0.866044 -0.499967 0.866044 0.499967 146.67 178.322)" stroke="#37393B"/>
<path d="M31.0017 110.096L55.4274 95.9949" stroke="#37393B"/>
<path d="M194.466 162.161L218.892 148.06" stroke="#37393B"/>
<path d="M60.1248 93.2833L97.7028 71.5895" stroke="#37393B"/>
<path d="M34.7595 91.6562L103.339 52.065" stroke="#37393B"/>
<path d="M39.4568 94.3679L83.6109 68.8777" stroke="#37393B"/>
<path d="M103.339 68.3354L126.826 54.7768" stroke="#37393B"/>
<rect x="0.866044" width="46.7294" height="28.2885" transform="matrix(0.866044 -0.499967 0.866044 0.499967 118.487 30.8043)" fill="#F5F4F1" stroke="#37393B"/>
<path d="M144.675 35.7947L169.101 21.6938" stroke="#37393B"/>
<path d="M150.312 35.7947L169.101 24.9478" stroke="#37393B"/>
<circle r="6.00856" transform="matrix(0.866044 -0.499967 0.866044 0.499967 148.433 23.8632)" fill="#F5F4F1" stroke="#37393B"/>
<circle r="6.00856" transform="matrix(0.866044 -0.499967 0.866044 0.499967 27.2441 98.1643)" fill="#F5F4F1" stroke="#37393B"/>
<rect x="-8.9407e-08" y="0.499967" width="123.747" height="59.7465" transform="matrix(0.866044 0.499967 -0.866044 0.499967 202.415 18.1474)" fill="#F5F4F1" stroke="#37393B"/>
<circle r="5.46618" transform="matrix(0.866044 -0.499967 0.866044 0.499967 283.714 80.8093)" fill="#F5F4F1" stroke="#37393B"/>
<path d="M272.44 78.0976L247.075 63.4543" stroke="#37393B"/>
<path d="M275.259 76.4706L255.747 65.2065" stroke="#37393B"/>
<rect x="-8.9407e-08" y="-0.499967" width="112.9" height="19.6104" transform="matrix(-0.866044 -0.499967 0.866044 -0.499967 284.147 90.3638)" stroke="#37393B"/>
<path d="M203.391 28.4731L214.664 34.9812" stroke="#37393B"/>
<path d="M216.073 35.7947L227.347 42.3028" stroke="#37393B"/>
<path d="M229.226 43.3875L240.499 49.8957" stroke="#37393B"/>
</svg>
