<svg width="128" height="137" viewBox="0 0 128 137" fill="none" xmlns="http://www.w3.org/2000/svg">
<path d="M10.2497 5.71631L1 118.563L109.53 135.829L120.013 120.413L126.796 127.812L120.013 15.5826L10.2497 5.71631Z" fill="white"/>
<path fill-rule="evenodd" clip-rule="evenodd" d="M9.92773 5.33379C10.0297 5.24795 10.1617 5.20638 10.2945 5.21832L120.058 15.0847C120.304 15.1068 120.497 15.3057 120.512 15.5525L127.295 127.782C127.308 127.993 127.186 128.19 126.991 128.273C126.796 128.355 126.57 128.306 126.427 128.15L120.071 121.216L109.943 136.11C109.834 136.27 109.643 136.353 109.451 136.322L0.921464 119.056C0.663292 119.015 0.480337 118.782 0.501693 118.522L9.75139 5.67546C9.76228 5.54262 9.82576 5.41962 9.92773 5.33379ZM10.7069 6.25942L1.53621 118.142L109.295 135.285L119.599 120.131C119.685 120.005 119.824 119.925 119.977 119.914C120.129 119.903 120.278 119.962 120.381 120.075L126.212 126.435L119.54 16.0421L10.7069 6.25942Z" fill="#37393B"/>
<path fill-rule="evenodd" clip-rule="evenodd" d="M10.1823 5.33356C10.2842 5.24793 10.416 5.20645 10.5485 5.21829L119.844 14.9863C120.09 15.0083 120.284 15.2066 120.299 15.4531L127.295 127.389C127.308 127.596 127.192 127.789 127.004 127.875C126.815 127.961 126.593 127.922 126.446 127.777L119.878 121.334L109.786 136.28C109.678 136.441 109.486 136.524 109.294 136.494L0.922412 119.466C0.663429 119.425 0.479852 119.192 0.501774 118.93L10.0058 5.6745C10.0169 5.54189 10.0804 5.41918 10.1823 5.33356ZM10.9602 6.25908L1.53717 118.55L108.92 135.423L119.259 15.9379L10.9602 6.25908ZM119.719 22.2136L110.036 134.123L119.385 120.276C119.469 120.153 119.602 120.074 119.75 120.059C119.897 120.044 120.044 120.095 120.15 120.199L126.216 126.15L119.719 22.2136ZM12.2894 9.16571C12.3909 9.07818 12.5232 9.03504 12.6568 9.04597L115.881 17.494C116.013 17.5048 116.135 17.5677 116.221 17.669C116.307 17.7702 116.349 17.9013 116.338 18.0336L112.378 65.8175C112.367 65.9527 112.301 66.0774 112.196 66.1633C112.091 66.2491 111.956 66.2887 111.822 66.2728L9.65363 54.2608C9.3893 54.2298 9.19565 53.9971 9.21309 53.7315L12.1171 9.51154C12.1259 9.37783 12.188 9.25323 12.2894 9.16571ZM13.0816 10.0841L10.2421 53.3231L111.424 65.2192L115.3 18.4498L13.0816 10.0841ZM16.8701 45.0062C16.8956 44.7312 17.1391 44.5289 17.4141 44.5544L54.506 47.9864C54.781 48.0118 54.9833 48.2554 54.9578 48.5303C54.9324 48.8053 54.6889 49.0076 54.4139 48.9821L17.3219 45.5501C17.047 45.5247 16.8447 45.2812 16.8701 45.0062ZM16.8706 49.357C16.899 49.0823 17.1446 48.8826 17.4193 48.9109L46.8553 51.9469C47.1299 51.9752 47.3297 52.2209 47.3013 52.4956C47.273 52.7702 47.0274 52.9699 46.7527 52.9416L17.3167 49.9056C17.042 49.8773 16.8423 49.6316 16.8706 49.357ZM18.7199 62.4142C18.7541 62.1402 19.004 61.9459 19.278 61.9801L34.062 63.8281C34.336 63.8624 34.5304 64.1122 34.4961 64.3863C34.4619 64.6603 34.212 64.8546 33.938 64.8204L19.154 62.9724C18.88 62.9381 18.6856 62.6882 18.7199 62.4142ZM16.8708 69.683C16.9003 69.4084 17.1467 69.2097 17.4213 69.2391L21.1173 69.6351C21.3918 69.6645 21.5906 69.9109 21.5612 70.1855C21.5317 70.4601 21.2853 70.6588 21.0107 70.6294L17.3147 70.2334C17.0402 70.204 16.8414 69.9575 16.8708 69.683ZM28.7508 71.399C28.7803 71.1244 29.0267 70.9257 29.3013 70.9551L32.9972 71.3511C33.2718 71.3805 33.4706 71.6269 33.4411 71.9015C33.4117 72.1761 33.1653 72.3748 32.8907 72.3454L29.1947 71.9494C28.9202 71.92 28.7214 71.6735 28.7508 71.399ZM91.4512 71.7906C91.483 71.5163 91.7312 71.3198 92.0055 71.3516L101.113 72.4076C101.388 72.4394 101.584 72.6875 101.553 72.9618C101.521 73.2361 101.273 73.4327 100.998 73.4009L91.8903 72.3449C91.616 72.3131 91.4194 72.0649 91.4512 71.7906ZM40.2348 72.851C40.2642 72.5764 40.5107 72.3777 40.7852 72.4071L44.4812 72.8031C44.7558 72.8325 44.9545 73.0789 44.9251 73.3535C44.8957 73.6281 44.6493 73.8268 44.3747 73.7974L40.6787 73.4014C40.4041 73.372 40.2054 73.1255 40.2348 72.851ZM52.6428 74.435C52.6722 74.1604 52.9187 73.9617 53.1932 73.9911L56.8892 74.3871C57.1638 74.4165 57.3625 74.6629 57.3331 74.9375C57.3037 75.2121 57.0573 75.4108 56.7827 75.3814L53.0867 74.9854C52.8121 74.956 52.6134 74.7095 52.6428 74.435ZM64.9188 76.019C64.9482 75.7444 65.1946 75.5457 65.4692 75.5751L69.1652 75.9711C69.4398 76.0005 69.6385 76.2469 69.6091 76.5215C69.5797 76.7961 69.3332 76.9948 69.0587 76.9654L65.3627 76.5694C65.0881 76.54 64.8894 76.2935 64.9188 76.019ZM76.4028 77.471C76.4322 77.1964 76.6786 76.9977 76.9532 77.0271L80.6492 77.4231C80.9238 77.4525 81.1225 77.6989 81.0931 77.9735C81.0637 78.2481 80.8172 78.4468 80.5427 78.4174L76.8467 78.0214C76.5721 77.992 76.3734 77.7455 76.4028 77.471Z" fill="#37393B"/>
<path fill-rule="evenodd" clip-rule="evenodd" d="M88.904 79.3682C88.9326 79.0936 89.1784 78.8941 89.4531 78.9226L90.3818 79.0193C90.6565 79.0479 90.856 79.2937 90.8274 79.5683C90.7988 79.843 90.553 80.0425 90.2784 80.0139L89.3496 79.9173C89.0749 79.8887 88.8755 79.6429 88.904 79.3682ZM91.6903 79.6581C91.7189 79.3835 91.9647 79.184 92.2394 79.2126L93.1681 79.3092C93.4428 79.3378 93.6423 79.5836 93.6137 79.8583C93.5851 80.1329 93.3393 80.3324 93.0646 80.3038L92.1359 80.2072C91.8612 80.1786 91.6617 79.9328 91.6903 79.6581Z" fill="#37393B"/>
<path fill-rule="evenodd" clip-rule="evenodd" d="M110.326 119.581C110.355 119.306 110.6 119.107 110.875 119.135L119.851 120.059C120.126 120.087 120.325 120.333 120.297 120.608C120.269 120.882 120.023 121.082 119.749 121.054L110.773 120.13C110.498 120.101 110.298 119.856 110.326 119.581Z" fill="#37393B"/>
<path fill-rule="evenodd" clip-rule="evenodd" d="M13.7478 0.831713C13.9047 1.01229 14.0243 1.25212 14.1176 1.5114C14.306 2.03502 14.4214 2.73723 14.4574 3.48169C14.4935 4.23039 14.4484 5.0031 14.3265 5.66082C14.2762 5.93234 14.0154 6.11168 13.7438 6.06139C13.4723 6.01109 13.293 5.7502 13.3433 5.47868C13.4492 4.90697 13.4915 4.21244 13.4585 3.5299C13.4254 2.84312 13.3199 2.24788 13.1767 1.84995C13.1448 1.7612 13.1137 1.68997 13.0852 1.63381C13.0449 1.71336 13.001 1.81985 12.9576 1.95718C12.819 2.39518 12.725 3.01738 12.7049 3.70924C12.6849 4.39865 12.7405 5.08076 12.856 5.62397C12.9138 5.89559 12.982 6.11115 13.0518 6.26814C13.0865 6.34618 13.119 6.40387 13.1467 6.44439C13.1603 6.46434 13.1717 6.47851 13.1804 6.4881C13.189 6.49775 13.1937 6.50143 13.1937 6.50143C13.4113 6.67149 13.4498 6.98572 13.2797 7.20329C13.1097 7.42085 12.7954 7.45936 12.5779 7.28931C12.3791 7.13396 12.2395 6.90276 12.138 6.67428C12.0319 6.43568 11.9454 6.14929 11.8779 5.83197C11.7429 5.19729 11.6835 4.43399 11.7054 3.6802C11.7272 2.92885 11.8292 2.20866 12.0041 1.65559C12.0911 1.38063 12.201 1.13089 12.3407 0.935813C12.4731 0.75093 12.689 0.538459 13.0034 0.504573C13.3379 0.468519 13.5916 0.651997 13.7478 0.831713ZM13.1946 1.47016C13.1946 1.47026 13.1935 1.47124 13.1913 1.47279C13.1935 1.47083 13.1946 1.47005 13.1946 1.47016Z" fill="#37393B"/>
<path fill-rule="evenodd" clip-rule="evenodd" d="M34.3809 3.18987C34.5379 3.37044 34.6575 3.61028 34.7508 3.86956C34.9392 4.39318 35.0546 5.09538 35.0906 5.83984C35.1267 6.58854 35.0815 7.36125 34.9597 8.01897C34.9094 8.29049 34.6485 8.46983 34.377 8.41954C34.1055 8.36924 33.9261 8.10836 33.9764 7.83684C34.0823 7.26512 34.1247 6.57059 34.0917 5.88806C34.0586 5.20128 33.953 4.60603 33.8099 4.20811C33.7779 4.11936 33.7468 4.04813 33.7184 3.99196C33.6781 4.07151 33.6342 4.17801 33.5908 4.31533C33.4522 4.75334 33.3582 5.37553 33.3381 6.06739C33.3181 6.75681 33.3737 7.43892 33.4892 7.98212C33.5469 8.25375 33.6152 8.4693 33.685 8.62629C33.7197 8.70433 33.7521 8.76203 33.7799 8.80254C33.7935 8.82249 33.8049 8.83667 33.8136 8.84626C33.8222 8.8559 33.8269 8.85959 33.8269 8.85959C34.0445 9.02965 34.083 9.34388 33.9129 9.56144C33.7428 9.77901 33.4286 9.81752 33.2111 9.64746C33.0123 9.49211 32.8727 9.26091 32.7712 9.03243C32.6651 8.79383 32.5785 8.50745 32.5111 8.19013C32.3761 7.55545 32.3166 6.79214 32.3385 6.03836C32.3604 5.28701 32.4624 4.56681 32.6373 4.01374C32.7243 3.73879 32.8342 3.48905 32.9739 3.29397C33.1062 3.10908 33.3222 2.89661 33.6366 2.86273C33.9711 2.82667 34.2247 3.01015 34.3809 3.18987ZM33.8278 3.82831C33.8278 3.82841 33.8267 3.82939 33.8245 3.83094C33.8267 3.82898 33.8278 3.82821 33.8278 3.82831Z" fill="#37393B"/>
<path fill-rule="evenodd" clip-rule="evenodd" d="M18.4639 1.42131C18.6208 1.60189 18.7405 1.84172 18.8338 2.101C19.0222 2.62462 19.1376 3.32683 19.1735 4.07129C19.2097 4.81999 19.1645 5.5927 19.0427 6.25042C18.9924 6.52194 18.7315 6.70128 18.46 6.65098C18.1884 6.60069 18.0091 6.3398 18.0594 6.06828C18.1653 5.49657 18.2076 4.80204 18.1747 4.1195C18.1415 3.43272 18.036 2.83748 17.8928 2.43955C17.8609 2.3508 17.8298 2.27957 17.8013 2.22341C17.761 2.30296 17.7171 2.40945 17.6737 2.54678C17.5352 2.98478 17.4412 3.60698 17.4211 4.29884C17.401 4.98825 17.4566 5.67036 17.5721 6.21357C17.6299 6.48519 17.6981 6.70075 17.7679 6.85774C17.8026 6.93578 17.8351 6.99347 17.8628 7.03399C17.8765 7.05394 17.8879 7.06811 17.8965 7.0777C17.9052 7.08735 17.9098 7.09103 17.9098 7.09103C18.1274 7.26109 18.1659 7.57532 17.9959 7.79289C17.8258 8.01045 17.5116 8.04896 17.294 7.8789C17.0953 7.72356 16.9557 7.49236 16.8541 7.26388C16.7481 7.02528 16.6615 6.73889 16.594 6.42157C16.459 5.78689 16.3996 5.02359 16.4215 4.2698C16.4433 3.51845 16.5453 2.79826 16.7203 2.24519C16.8072 1.97023 16.9171 1.72049 17.0568 1.52541C17.1892 1.34053 17.4051 1.12806 17.7195 1.09417C18.054 1.05812 18.3077 1.2416 18.4639 1.42131ZM17.9107 2.05976C17.9107 2.05986 17.9097 2.06084 17.9075 2.06239C17.9096 2.06043 17.9107 2.05965 17.9107 2.05976Z" fill="#37393B"/>
<path fill-rule="evenodd" clip-rule="evenodd" d="M39.0971 3.18987C39.254 3.37044 39.3736 3.61028 39.4669 3.86956C39.6553 4.39318 39.7707 5.09538 39.8067 5.83984C39.8428 6.58854 39.7977 7.36125 39.6758 8.01897C39.6255 8.29049 39.3647 8.46983 39.0931 8.41954C38.8216 8.36924 38.6423 8.10836 38.6926 7.83684C38.7985 7.26512 38.8408 6.57059 38.8078 5.88806C38.7747 5.20128 38.6692 4.60603 38.526 4.20811C38.4941 4.11936 38.463 4.04813 38.4345 3.99196C38.3942 4.07151 38.3503 4.17801 38.3069 4.31533C38.1683 4.75334 38.0743 5.37553 38.0542 6.06739C38.0342 6.75681 38.0898 7.43892 38.2053 7.98212C38.2631 8.25375 38.3313 8.4693 38.4011 8.62629C38.4358 8.70433 38.4683 8.76203 38.496 8.80254C38.5096 8.82249 38.5211 8.83667 38.5297 8.84626C38.5383 8.8559 38.543 8.85959 38.543 8.85959C38.7606 9.02965 38.7991 9.34388 38.629 9.56144C38.459 9.77901 38.1447 9.81752 37.9272 9.64746C37.7284 9.49211 37.5888 9.26091 37.4873 9.03243C37.3812 8.79383 37.2947 8.50745 37.2272 8.19013C37.0922 7.55545 37.0328 6.79214 37.0547 6.03836C37.0765 5.28701 37.1785 4.56681 37.3534 4.01374C37.4404 3.73879 37.5503 3.48905 37.69 3.29397C37.8224 3.10908 38.0383 2.89661 38.3527 2.86273C38.6872 2.82667 38.9409 3.01015 39.0971 3.18987ZM38.5439 3.82831C38.5439 3.82841 38.5428 3.82939 38.5406 3.83094C38.5428 3.82898 38.5439 3.82821 38.5439 3.82831Z" fill="#37393B"/>
<path fill-rule="evenodd" clip-rule="evenodd" d="M23.1801 2.01067C23.337 2.19124 23.4567 2.43108 23.5499 2.69036C23.7383 3.21398 23.8538 3.91618 23.8897 4.66064C23.9258 5.40934 23.8807 6.18205 23.7589 6.83977C23.7086 7.11129 23.4477 7.29064 23.1761 7.24034C22.9046 7.19005 22.7253 6.92916 22.7756 6.65764C22.8815 6.08592 22.9238 5.3914 22.8909 4.70886C22.8577 4.02208 22.7522 3.42683 22.609 3.02891C22.5771 2.94016 22.546 2.86893 22.5175 2.81276C22.4772 2.89231 22.4333 2.99881 22.3899 3.13613C22.2513 3.57414 22.1574 4.19634 22.1373 4.88819C22.1172 5.57761 22.1728 6.25972 22.2883 6.80292C22.3461 7.07455 22.4143 7.2901 22.4841 7.44709C22.5188 7.52513 22.5513 7.58283 22.579 7.62334C22.5927 7.64329 22.6041 7.65747 22.6127 7.66706C22.6214 7.6767 22.626 7.68039 22.626 7.68039C22.8436 7.85045 22.8821 8.16468 22.712 8.38224C22.542 8.59981 22.2277 8.63832 22.0102 8.46826C21.8114 8.31291 21.6718 8.08171 21.5703 7.85323C21.4642 7.61464 21.3777 7.32825 21.3102 7.01093C21.1752 6.37625 21.1158 5.61294 21.1377 4.85916C21.1595 4.10781 21.2615 3.38761 21.4364 2.83455C21.5234 2.55959 21.6333 2.30985 21.773 2.11477C21.9054 1.92989 22.1213 1.71741 22.4357 1.68353C22.7702 1.64747 23.0239 1.83095 23.1801 2.01067ZM22.6269 2.64911C22.6269 2.64921 22.6258 2.65019 22.6236 2.65174C22.6258 2.64978 22.6269 2.64901 22.6269 2.64911Z" fill="#37393B"/>
<path fill-rule="evenodd" clip-rule="evenodd" d="M43.8132 3.77922C43.9702 3.9598 44.0898 4.19963 44.1831 4.45891C44.3715 4.98253 44.4869 5.68474 44.5229 6.4292C44.559 7.1779 44.5139 7.95061 44.392 8.60833C44.3417 8.87985 44.0808 9.05919 43.8093 9.00889C43.5378 8.9586 43.3585 8.69771 43.4088 8.42619C43.5147 7.85448 43.557 7.15995 43.524 6.47741C43.4909 5.79063 43.3853 5.19539 43.2422 4.79746C43.2102 4.70871 43.1792 4.63748 43.1507 4.58132C43.1104 4.66087 43.0665 4.76736 43.0231 4.90469C42.8845 5.34269 42.7905 5.96489 42.7704 6.65675C42.7504 7.34616 42.806 8.02827 42.9215 8.57148C42.9793 8.8431 43.0475 9.05866 43.1173 9.21565C43.152 9.29369 43.1844 9.35138 43.2122 9.3919C43.2258 9.41185 43.2372 9.42602 43.2459 9.43561C43.2545 9.44526 43.2592 9.44894 43.2592 9.44894C43.4768 9.619 43.5153 9.93323 43.3452 10.1508C43.1752 10.3684 42.8609 10.4069 42.6434 10.2368C42.4446 10.0815 42.305 9.85027 42.2035 9.62179C42.0974 9.38319 42.0108 9.0968 41.9434 8.77948C41.8084 8.1448 41.749 7.3815 41.7709 6.62771C41.7927 5.87636 41.8947 5.15617 42.0696 4.6031C42.1566 4.32814 42.2665 4.0784 42.4062 3.88332C42.5385 3.69844 42.7545 3.48597 43.0689 3.45208C43.4034 3.41603 43.657 3.59951 43.8132 3.77922ZM43.2601 4.41767C43.2601 4.41777 43.259 4.41875 43.2568 4.4203C43.259 4.41834 43.2601 4.41756 43.2601 4.41767Z" fill="#37393B"/>
<path fill-rule="evenodd" clip-rule="evenodd" d="M28.4857 2.60027C28.6427 2.78084 28.7623 3.02068 28.8556 3.27996C29.044 3.80358 29.1594 4.50578 29.1954 5.25024C29.2315 5.99894 29.1863 6.77165 29.0645 7.42937C29.0142 7.70089 28.7533 7.88023 28.4818 7.82994C28.2103 7.77964 28.0309 7.51876 28.0812 7.24724C28.1871 6.67552 28.2295 5.98099 28.1965 5.29846C28.1634 4.61168 28.0578 4.01643 27.9147 3.61851C27.8827 3.52976 27.8516 3.45853 27.8232 3.40236C27.7828 3.48191 27.739 3.58841 27.6956 3.72573C27.557 4.16374 27.463 4.78594 27.4429 5.47779C27.4229 6.16721 27.4785 6.84932 27.594 7.39252C27.6517 7.66415 27.72 7.8797 27.7898 8.03669C27.8245 8.11473 27.8569 8.17243 27.8847 8.21294C27.8983 8.23289 27.9097 8.24707 27.9183 8.25666C27.927 8.2663 27.9317 8.26999 27.9317 8.26999C28.1493 8.44005 28.1878 8.75428 28.0177 8.97184C27.8476 9.18941 27.5334 9.22792 27.3158 9.05786C27.1171 8.90251 26.9775 8.67131 26.876 8.44283C26.7699 8.20424 26.6833 7.91785 26.6159 7.60053C26.4809 6.96585 26.4214 6.20254 26.4433 5.44876C26.4652 4.69741 26.5672 3.97721 26.7421 3.42415C26.8291 3.14919 26.939 2.89945 27.0787 2.70437C27.211 2.51948 27.427 2.30701 27.7414 2.27313C28.0759 2.23707 28.3295 2.42055 28.4857 2.60027ZM27.9326 3.23871C27.9326 3.23881 27.9315 3.23979 27.9293 3.24134C27.9315 3.23938 27.9325 3.23861 27.9326 3.23871Z" fill="#37393B"/>
<path fill-rule="evenodd" clip-rule="evenodd" d="M49.1189 4.36882C49.2759 4.5494 49.3955 4.78923 49.4888 5.04851C49.6772 5.57213 49.7926 6.27434 49.8285 7.01879C49.8647 7.7675 49.8195 8.54021 49.6977 9.19793C49.6474 9.46945 49.3865 9.64879 49.115 9.59849C48.8435 9.5482 48.6641 9.28731 48.7144 9.01579C48.8203 8.44408 48.8626 7.74955 48.8297 7.06701C48.7965 6.38023 48.691 5.78499 48.5478 5.38706C48.5159 5.29831 48.4848 5.22708 48.4564 5.17092C48.416 5.25047 48.3722 5.35696 48.3287 5.49429C48.1902 5.93229 48.0962 6.55449 48.0761 7.24635C48.0561 7.93576 48.1116 8.61787 48.2272 9.16108C48.2849 9.4327 48.3532 9.64826 48.4229 9.80524C48.4576 9.88329 48.4901 9.94098 48.5178 9.9815C48.5315 10.0014 48.5429 10.0156 48.5515 10.0252C48.5602 10.0349 48.5649 10.0385 48.5649 10.0385C48.7824 10.2086 48.8209 10.5228 48.6509 10.7404C48.4808 10.958 48.1666 10.9965 47.949 10.8264C47.7503 10.6711 47.6107 10.4399 47.5091 10.2114C47.4031 9.97279 47.3165 9.6864 47.249 9.36908C47.1141 8.7344 47.0546 7.9711 47.0765 7.21731C47.0983 6.46596 47.2003 5.74577 47.3753 5.1927C47.4623 4.91774 47.5722 4.668 47.7118 4.47292C47.8442 4.28804 48.0602 4.07557 48.3746 4.04168C48.7091 4.00563 48.9627 4.18911 49.1189 4.36882ZM48.5657 5.00727C48.5658 5.00737 48.5647 5.00835 48.5625 5.0099C48.5646 5.00794 48.5657 5.00716 48.5657 5.00727Z" fill="#37393B"/>
<path fill-rule="evenodd" clip-rule="evenodd" d="M55.0141 4.95842C55.1711 5.139 55.2907 5.37883 55.384 5.63811C55.5724 6.16173 55.6878 6.86394 55.7237 7.60839C55.7599 8.3571 55.7147 9.12981 55.5929 9.78752C55.5426 10.059 55.2817 10.2384 55.0102 10.1881C54.7387 10.1378 54.5593 9.87691 54.6096 9.60539C54.7155 9.03368 54.7579 8.33915 54.7249 7.65661C54.6917 6.96983 54.5862 6.37458 54.443 5.97666C54.4111 5.88791 54.38 5.81668 54.3516 5.76052C54.3112 5.84007 54.2674 5.94656 54.2239 6.08389C54.0854 6.52189 53.9914 7.14409 53.9713 7.83595C53.9513 8.52536 54.0068 9.20747 54.1224 9.75068C54.1801 10.0223 54.2484 10.2379 54.3181 10.3948C54.3528 10.4729 54.3853 10.5306 54.413 10.5711C54.4267 10.591 54.4381 10.6052 54.4467 10.6148C54.4554 10.6245 54.4601 10.6281 54.4601 10.6281C54.6776 10.7982 54.7161 11.1124 54.5461 11.33C54.376 11.5476 54.0618 11.5861 53.8442 11.416C53.6455 11.2607 53.5059 11.0295 53.4043 10.801C53.2983 10.5624 53.2117 10.276 53.1442 9.95868C53.0093 9.324 52.9498 8.5607 52.9717 7.80691C52.9935 7.05556 53.0956 6.33537 53.2705 5.7823C53.3575 5.50734 53.4674 5.2576 53.607 5.06252C53.7394 4.87764 53.9554 4.66517 54.2698 4.63128C54.6043 4.59523 54.8579 4.77871 55.0141 4.95842ZM54.4609 5.59687C54.461 5.59697 54.4599 5.59795 54.4577 5.59949C54.4598 5.59754 54.4609 5.59676 54.4609 5.59687Z" fill="#37393B"/>
<path fill-rule="evenodd" clip-rule="evenodd" d="M60.9093 5.54778C61.0663 5.72835 61.1859 5.96819 61.2792 6.22747C61.4676 6.75109 61.583 7.45329 61.6189 8.19775C61.6551 8.94645 61.6099 9.71916 61.4881 10.3769C61.4378 10.6484 61.1769 10.8277 60.9054 10.7774C60.6339 10.7272 60.4545 10.4663 60.5048 10.1947C60.6107 9.62303 60.6531 8.9285 60.6201 8.24597C60.5869 7.55919 60.4814 6.96394 60.3382 6.56602C60.3063 6.47727 60.2752 6.40604 60.2468 6.34987C60.2064 6.42942 60.1626 6.53592 60.1191 6.67324C59.9806 7.11125 59.8866 7.73344 59.8665 8.4253C59.8465 9.11472 59.902 9.79683 60.0176 10.34C60.0753 10.6117 60.1436 10.8272 60.2134 10.9842C60.248 11.0622 60.2805 11.1199 60.3082 11.1605C60.3219 11.1804 60.3333 11.1946 60.3419 11.2042C60.3506 11.2138 60.3553 11.2175 60.3553 11.2175C60.5728 11.3876 60.6113 11.7018 60.4413 11.9194C60.2712 12.1369 59.957 12.1754 59.7394 12.0054C59.5407 11.85 59.4011 11.6188 59.2995 11.3903C59.1935 11.1517 59.1069 10.8654 59.0394 10.548C58.9045 9.91336 58.845 9.15005 58.8669 8.39627C58.8887 7.64492 58.9908 6.92472 59.1657 6.37166C59.2527 6.0967 59.3626 5.84696 59.5022 5.65188C59.6346 5.46699 59.8506 5.25452 60.165 5.22064C60.4995 5.18458 60.7531 5.36806 60.9093 5.54778ZM60.3561 6.18622C60.3562 6.18632 60.3551 6.1873 60.3529 6.18885C60.355 6.18689 60.3561 6.18612 60.3561 6.18622Z" fill="#37393B"/>
<path fill-rule="evenodd" clip-rule="evenodd" d="M66.8045 6.13738C66.9615 6.31795 67.0811 6.55779 67.1744 6.81707C67.3628 7.34069 67.4782 8.04289 67.5141 8.78735C67.5503 9.53605 67.5051 10.3088 67.3833 10.9665C67.333 11.238 67.0721 11.4173 66.8006 11.367C66.5291 11.3168 66.3497 11.0559 66.4 10.7843C66.5059 10.2126 66.5483 9.5181 66.5153 8.83557C66.4822 8.14879 66.3766 7.55354 66.2334 7.15562C66.2015 7.06687 66.1704 6.99563 66.142 6.93947C66.1016 7.01902 66.0578 7.12552 66.0143 7.26284C65.8758 7.70085 65.7818 8.32304 65.7617 9.0149C65.7417 9.70432 65.7972 10.3864 65.9128 10.9296C65.9705 11.2013 66.0388 11.4168 66.1086 11.5738C66.1432 11.6518 66.1757 11.7095 66.2034 11.7501C66.2171 11.77 66.2285 11.7842 66.2371 11.7938C66.2458 11.8034 66.2505 11.8071 66.2505 11.8071C66.468 11.9772 66.5065 12.2914 66.3365 12.509C66.1664 12.7265 65.8522 12.765 65.6346 12.595C65.4359 12.4396 65.2963 12.2084 65.1947 11.9799C65.0887 11.7413 65.0021 11.455 64.9346 11.1376C64.7997 10.503 64.7402 9.73965 64.7621 8.98586C64.784 8.23452 64.886 7.51432 65.0609 6.96125C65.1479 6.6863 65.2578 6.43656 65.3974 6.24148C65.5298 6.05659 65.7458 5.84412 66.0602 5.81024C66.3947 5.77418 66.6483 5.95766 66.8045 6.13738ZM66.2513 6.77582C66.2514 6.77592 66.2503 6.7769 66.2481 6.77845C66.2502 6.77649 66.2513 6.77572 66.2513 6.77582Z" fill="#37393B"/>
<path fill-rule="evenodd" clip-rule="evenodd" d="M73.8787 6.72698C74.0357 6.90755 74.1553 7.14739 74.2486 7.40666C74.437 7.93029 74.5524 8.63249 74.5884 9.37695C74.6245 10.1257 74.5794 10.8984 74.4575 11.5561C74.4072 11.8276 74.1463 12.0069 73.8748 11.9566C73.6033 11.9064 73.424 11.6455 73.4742 11.3739C73.5801 10.8022 73.6225 10.1077 73.5895 9.42517C73.5564 8.73839 73.4508 8.14314 73.3077 7.74521C73.2757 7.65647 73.2446 7.58523 73.2162 7.52907C73.1759 7.60862 73.132 7.71512 73.0886 7.85244C72.95 8.29045 72.856 8.91264 72.8359 9.6045C72.8159 10.2939 72.8715 10.976 72.987 11.5192C73.0447 11.7909 73.113 12.0064 73.1828 12.1634C73.2175 12.2414 73.2499 12.2991 73.2777 12.3397C73.2913 12.3596 73.3027 12.3738 73.3114 12.3834C73.32 12.393 73.3247 12.3967 73.3247 12.3967C73.5423 12.5668 73.5808 12.881 73.4107 13.0986C73.2406 13.3161 72.9264 13.3546 72.7089 13.1846C72.5101 13.0292 72.3705 12.798 72.269 12.5695C72.1629 12.3309 72.0763 12.0446 72.0089 11.7272C71.8739 11.0926 71.8144 10.3293 71.8363 9.57546C71.8582 8.82412 71.9602 8.10392 72.1351 7.55085C72.2221 7.2759 72.332 7.02616 72.4717 6.83108C72.604 6.64619 72.82 6.43372 73.1344 6.39984C73.4689 6.36378 73.7225 6.54726 73.8787 6.72698ZM73.3256 7.36542C73.3256 7.36552 73.3245 7.3665 73.3223 7.36805C73.3245 7.36609 73.3256 7.36532 73.3256 7.36542Z" fill="#37393B"/>
<path fill-rule="evenodd" clip-rule="evenodd" d="M80.953 7.31633C81.1099 7.49691 81.2295 7.73674 81.3228 7.99602C81.5112 8.51964 81.6266 9.22185 81.6626 9.9663C81.6987 10.715 81.6536 11.4877 81.5317 12.1454C81.4814 12.417 81.2206 12.5963 80.949 12.546C80.6775 12.4957 80.4982 12.2348 80.5485 11.9633C80.6544 11.3916 80.6967 10.6971 80.6637 10.0145C80.6306 9.32774 80.5251 8.7325 80.3819 8.33457C80.35 8.24582 80.3189 8.17459 80.2904 8.11843C80.2501 8.19798 80.2062 8.30447 80.1628 8.4418C80.0242 8.8798 79.9302 9.502 79.9101 10.1939C79.8901 10.8833 79.9457 11.5654 80.0612 12.1086C80.119 12.3802 80.1872 12.5958 80.257 12.7528C80.2917 12.8308 80.3242 12.8885 80.3519 12.929C80.3655 12.949 80.3769 12.9631 80.3856 12.9727C80.3942 12.9824 80.3989 12.9861 80.3989 12.9861C80.6165 13.1561 80.655 13.4703 80.4849 13.6879C80.3149 13.9055 80.0006 13.944 79.7831 13.7739C79.5843 13.6186 79.4447 13.3874 79.3432 13.1589C79.2371 12.9203 79.1506 12.6339 79.0831 12.3166C78.9481 11.6819 78.8887 10.9186 78.9106 10.1648C78.9324 9.41347 79.0344 8.69328 79.2093 8.14021C79.2963 7.86525 79.4062 7.61551 79.5459 7.42043C79.6783 7.23555 79.8942 7.02308 80.2086 6.98919C80.5431 6.95314 80.7968 7.13662 80.953 7.31633ZM80.3998 7.95478C80.3998 7.95488 80.3987 7.95586 80.3965 7.9574C80.3987 7.95545 80.3998 7.95467 80.3998 7.95478Z" fill="#37393B"/>
<path fill-rule="evenodd" clip-rule="evenodd" d="M88.0272 7.90593C88.1841 8.08651 88.3038 8.32634 88.3971 8.58562C88.5854 9.10924 88.7009 9.81145 88.7368 10.5559C88.7729 11.3046 88.7278 12.0773 88.606 12.735C88.5557 13.0066 88.2948 13.1859 88.0233 13.1356C87.7517 13.0853 87.5724 12.8244 87.6227 12.5529C87.7286 11.9812 87.7709 11.2867 87.738 10.6041C87.7048 9.91734 87.5993 9.32209 87.4561 8.92417C87.4242 8.83542 87.3931 8.76419 87.3646 8.70803C87.3243 8.78758 87.2804 8.89407 87.237 9.0314C87.0984 9.4694 87.0045 10.0916 86.9844 10.7835C86.9643 11.4729 87.0199 12.155 87.1354 12.6982C87.1932 12.9698 87.2614 13.1854 87.3312 13.3424C87.3659 13.4204 87.3984 13.4781 87.4261 13.5186C87.4398 13.5386 87.4512 13.5527 87.4598 13.5623C87.4685 13.572 87.4731 13.5757 87.4731 13.5757C87.6907 13.7457 87.7292 14.0599 87.5591 14.2775C87.3891 14.4951 87.0749 14.5336 86.8573 14.3635C86.6585 14.2082 86.5189 13.977 86.4174 13.7485C86.3114 13.5099 86.2248 13.2235 86.1573 12.9062C86.0223 12.2715 85.9629 11.5082 85.9848 10.7544C86.0066 10.0031 86.1086 9.28288 86.2836 8.72981C86.3705 8.45485 86.4804 8.20511 86.6201 8.01003C86.7525 7.82515 86.9684 7.61268 87.2828 7.57879C87.6173 7.54274 87.871 7.72622 88.0272 7.90593ZM87.474 8.54438C87.474 8.54448 87.4729 8.54546 87.4708 8.547C87.4729 8.54505 87.474 8.54427 87.474 8.54438Z" fill="#37393B"/>
<path fill-rule="evenodd" clip-rule="evenodd" d="M95.1015 8.49553C95.2584 8.6761 95.378 8.91594 95.4713 9.17522C95.6597 9.69884 95.7751 10.401 95.8111 11.1455C95.8472 11.8942 95.8021 12.6669 95.6802 13.3246C95.6299 13.5962 95.3691 13.7755 95.0975 13.7252C94.826 13.6749 94.6467 13.414 94.697 13.1425C94.8029 12.5708 94.8452 11.8763 94.8122 11.1937C94.7791 10.5069 94.6736 9.91169 94.5304 9.51377C94.4985 9.42502 94.4674 9.35379 94.4389 9.29763C94.3986 9.37718 94.3547 9.48367 94.3113 9.621C94.1727 10.059 94.0787 10.6812 94.0586 11.3731C94.0386 12.0625 94.0942 12.7446 94.2097 13.2878C94.2675 13.5594 94.3357 13.775 94.4055 13.932C94.4402 14.01 94.4727 14.0677 94.5004 14.1082C94.514 14.1282 94.5254 14.1423 94.5341 14.1519C94.5427 14.1616 94.5474 14.1653 94.5474 14.1653C94.765 14.3353 94.8035 14.6495 94.6334 14.8671C94.4634 15.0847 94.1491 15.1232 93.9316 14.9531C93.7328 14.7978 93.5932 14.5666 93.4917 14.3381C93.3856 14.0995 93.2991 13.8131 93.2316 13.4958C93.0966 12.8611 93.0372 12.0978 93.0591 11.344C93.0809 10.5927 93.1829 9.87248 93.3578 9.31941C93.4448 9.04445 93.5547 8.79471 93.6944 8.59963C93.8268 8.41475 94.0427 8.20228 94.3571 8.16839C94.6916 8.13234 94.9453 8.31582 95.1015 8.49553ZM94.5483 9.13397C94.5483 9.13408 94.5472 9.13506 94.545 9.1366C94.5472 9.13465 94.5483 9.13387 94.5483 9.13397Z" fill="#37393B"/>
<path fill-rule="evenodd" clip-rule="evenodd" d="M102.176 9.08489C102.333 9.26546 102.452 9.5053 102.546 9.76457C102.734 10.2882 102.849 10.9904 102.885 11.7349C102.921 12.4836 102.876 13.2563 102.754 13.914C102.704 14.1855 102.443 14.3649 102.172 14.3146C101.9 14.2643 101.721 14.0034 101.771 13.7319C101.877 13.1601 101.919 12.4656 101.886 11.7831C101.853 11.0963 101.748 10.501 101.605 10.1031C101.573 10.0144 101.542 9.94314 101.513 9.88698C101.473 9.96653 101.429 10.073 101.385 10.2104C101.247 10.6484 101.153 11.2706 101.133 11.9624C101.113 12.6518 101.168 13.3339 101.284 13.8771C101.342 14.1488 101.41 14.3643 101.48 14.5213C101.514 14.5994 101.547 14.657 101.575 14.6976C101.588 14.7175 101.6 14.7317 101.608 14.7413C101.617 14.7509 101.622 14.7546 101.622 14.7546C101.839 14.9247 101.878 15.2389 101.708 15.4565C101.538 15.674 101.223 15.7125 101.006 15.5425C100.807 15.3871 100.667 15.1559 100.566 14.9275C100.46 14.6889 100.373 14.4025 100.306 14.0851C100.171 13.4505 100.111 12.6872 100.133 11.9334C100.155 11.182 100.257 10.4618 100.432 9.90876C100.519 9.63381 100.629 9.38407 100.769 9.18899C100.901 9.0041 101.117 8.79163 101.431 8.75775C101.766 8.72169 102.019 8.90517 102.176 9.08489ZM101.623 9.72333C101.623 9.72343 101.621 9.72441 101.619 9.72596C101.621 9.724 101.622 9.72323 101.623 9.72333Z" fill="#37393B"/>
<path fill-rule="evenodd" clip-rule="evenodd" d="M109.25 9.67449C109.407 9.85506 109.526 10.0949 109.62 10.3542C109.808 10.8778 109.924 11.58 109.96 12.3245C109.996 13.0732 109.951 13.8459 109.829 14.5036C109.778 14.7751 109.517 14.9545 109.246 14.9042C108.974 14.8539 108.795 14.593 108.845 14.3215C108.951 13.7497 108.994 13.0552 108.961 12.3727C108.928 11.6859 108.822 11.0906 108.679 10.6927C108.647 10.604 108.616 10.5327 108.587 10.4766C108.547 10.5561 108.503 10.6626 108.46 10.8C108.321 11.238 108.227 11.8602 108.207 12.552C108.187 13.2414 108.243 13.9235 108.358 14.4667C108.416 14.7384 108.484 14.9539 108.554 15.1109C108.589 15.189 108.621 15.2466 108.649 15.2872C108.662 15.3071 108.674 15.3213 108.683 15.3309C108.691 15.3405 108.696 15.3442 108.696 15.3442C108.913 15.5143 108.952 15.8285 108.782 16.0461C108.612 16.2636 108.298 16.3021 108.08 16.1321C107.881 15.9767 107.742 15.7455 107.64 15.5171C107.534 15.2785 107.447 14.9921 107.38 14.6747C107.245 14.0401 107.186 13.2768 107.207 12.523C107.229 11.7716 107.331 11.0514 107.506 10.4984C107.593 10.2234 107.703 9.97367 107.843 9.77859C107.975 9.5937 108.191 9.38123 108.506 9.34735C108.84 9.31129 109.094 9.49477 109.25 9.67449ZM108.697 10.3129C108.697 10.313 108.696 10.314 108.693 10.3156C108.696 10.3136 108.697 10.3128 108.697 10.3129Z" fill="#37393B"/>
<path fill-rule="evenodd" clip-rule="evenodd" d="M116.324 10.2641C116.481 10.4447 116.601 10.6845 116.694 10.9438C116.882 11.4674 116.998 12.1696 117.034 12.9141C117.07 13.6628 117.025 14.4355 116.903 15.0932C116.853 15.3647 116.592 15.5441 116.32 15.4938C116.049 15.4435 115.869 15.1826 115.92 14.9111C116.026 14.3393 116.068 13.6448 116.035 12.9623C116.002 12.2755 115.896 11.6802 115.753 11.2823C115.721 11.1936 115.69 11.1223 115.662 11.0662C115.621 11.1457 115.577 11.2522 115.534 11.3896C115.395 11.8276 115.301 12.4498 115.281 13.1416C115.261 13.831 115.317 14.5131 115.432 15.0563C115.49 15.328 115.558 15.5435 115.628 15.7005C115.663 15.7786 115.695 15.8362 115.723 15.8768C115.737 15.8967 115.748 15.9109 115.757 15.9205C115.765 15.9301 115.77 15.9338 115.77 15.9338C115.988 16.1039 116.026 16.4181 115.856 16.6357C115.686 16.8532 115.372 16.8917 115.154 16.7217C114.956 16.5663 114.816 16.3351 114.714 16.1067C114.608 15.8681 114.522 15.5817 114.454 15.2643C114.319 14.6297 114.26 13.8664 114.282 13.1126C114.304 12.3612 114.406 11.641 114.581 11.088C114.668 10.813 114.777 10.5633 114.917 10.3682C115.049 10.1833 115.265 9.97083 115.58 9.93695C115.914 9.90089 116.168 10.0844 116.324 10.2641ZM115.771 10.9025C115.771 10.9026 115.77 10.9036 115.768 10.9052C115.77 10.9032 115.771 10.9024 115.771 10.9025Z" fill="#37393B"/>
<path fill-rule="evenodd" clip-rule="evenodd" d="M24.5809 76.3412L16.9803 75.3728L16.4843 75.3096L16.358 76.3016L16.8539 76.3647L24.5809 77.3493V76.3412ZM24.5809 81.3814L16.9822 80.3839L16.4865 80.3188L16.3563 81.3103L16.8521 81.3754L24.5809 82.39V81.3814ZM28.7075 82.9317V81.9232L36.3713 82.9292V83.9378L28.7075 82.9317ZM24.5809 87.3353L16.986 86.2796L16.4907 86.2108L16.3531 87.2013L16.8483 87.2701L24.5809 88.3449V87.3353ZM28.7075 88.9185V87.9089L36.3713 88.9741V89.9837L28.7075 88.9185ZM24.5809 93.8493L16.9878 92.7646L16.4929 92.6939L16.3515 93.6839L16.8464 93.7546L24.5809 94.8595V93.8493ZM28.7075 95.449V94.4389L36.3713 95.5337V96.5438L28.7075 95.449ZM24.5809 99.8324L16.9935 98.6606L16.4993 98.5843L16.3467 99.5726L16.8408 99.6489L24.5809 100.844V99.8324ZM28.7075 101.482V100.47L36.3713 101.653V102.665L28.7075 101.482ZM28.7075 77.875V76.867L36.3713 77.8434V78.8515L28.7075 77.875ZM40.4979 83.4709V84.4795L48.7512 85.563V84.5544L40.4979 83.4709ZM40.4979 89.5477V90.5573L48.7512 91.7045V90.6949L40.4979 89.5477ZM40.4979 96.1232V97.1333L48.7512 98.3124V97.3022L40.4979 96.1232ZM40.4979 102.291V103.303L48.7512 104.577V103.565L40.4979 102.291ZM40.4979 78.3692V79.3773L48.7512 80.4289V79.4208L40.4979 78.3692ZM52.8778 86.1047V85.0961L61.1311 86.1795V87.1881L52.8778 86.1047ZM52.8778 92.2781V91.2685L61.1311 92.4156V93.4252L52.8778 92.2781ZM52.8778 98.9019V97.8918L61.1311 99.0708V100.081L52.8778 98.9019ZM52.8778 105.214V104.203L61.1311 105.477V106.489L52.8778 105.214ZM52.8778 80.9547V79.9466L61.1311 80.9982V82.0062L52.8778 80.9547ZM65.2577 86.7213V87.7298L72.332 88.6585V87.6499L65.2577 86.7213ZM65.2577 92.9892V93.9988L72.332 94.9821V93.9725L65.2577 92.9892ZM65.2577 99.6603V100.67L72.332 101.681V100.671L65.2577 99.6603ZM65.2577 106.115V107.126L72.332 108.219V107.207L65.2577 106.115ZM65.2577 81.5239V82.532L72.332 83.4334V82.4253L65.2577 81.5239ZM76.4586 89.2002V88.1916L84.7119 89.2751V90.2837L76.4586 89.2002ZM76.4586 95.5557V94.5461L84.7119 95.6933V96.7029L76.4586 95.5557ZM76.4586 102.271V101.26L84.7119 102.439V103.45L76.4586 102.271ZM76.4586 108.856V107.844L84.7119 109.119V110.131L76.4586 108.856ZM76.4586 83.9592V82.9511L84.7119 84.0027V85.0107L76.4586 83.9592ZM88.8385 85.5365V84.5284L93.3231 85.0998L93.8191 85.163L93.6927 86.155L93.1967 86.0918L88.8385 85.5365ZM88.8385 89.8168V90.8254L93.1949 91.3973L93.6906 91.4623L93.8208 90.4708L93.325 90.4058L88.8385 89.8168ZM88.8385 96.2669V97.2765L93.1911 97.8815L93.6863 97.9503L93.824 96.9598L93.3288 96.891L88.8385 96.2669ZM88.8385 103.029V104.039L93.1892 104.661L93.6842 104.731L93.8256 103.741L93.3306 103.671L88.8385 103.029ZM88.8385 109.756V110.768L93.1836 111.439L93.6778 111.516L93.8304 110.527L93.3363 110.451L88.8385 109.756Z" fill="#37393B"/>
<path fill-rule="evenodd" clip-rule="evenodd" d="M10.5649 5.75977L119.153 16.1723L108.152 134.808L1.34796 118.147L10.5649 5.75977ZM11.4787 6.85198L2.4206 117.303L107.254 133.656L118.065 17.0726L11.4787 6.85198Z" fill="#37393B"/>
</svg>
