<svg width="187" height="108" viewBox="0 0 187 108" fill="none" xmlns="http://www.w3.org/2000/svg">
<path d="M77.5828 105.778L15.7815 66.1535L83.4971 29.3793L126.525 59.1683L82.1406 101.456L77.5828 105.778Z" fill="white"/>
<path fill-rule="evenodd" clip-rule="evenodd" d="M14.9255 66.1329L83.5511 28.8645L127.275 59.1356L82.6644 101.639L82.6637 101.639L77.6782 106.368L14.9255 66.1329ZM16.6375 66.1739L77.4875 105.189L81.6169 101.272L81.6175 101.272L125.774 59.2008L83.4431 29.8938L16.6375 66.1739Z" fill="#37393B"/>
<path d="M46.5465 36.6153L15.7815 66.1538L22.6182 70.2885L71.6143 40.7501L102.379 16.9126L107.86 1.59522L107.371 1.3133L89.3029 23.8978L46.5465 36.6153Z" fill="white"/>
<path fill-rule="evenodd" clip-rule="evenodd" d="M107.183 0.70503L108.526 1.48015L102.952 17.0611L72.0828 40.979L22.6175 70.8002L15.0159 66.2029L46.1114 36.3472L88.8352 23.6394L107.183 0.70503ZM106.76 2.92032L89.7705 24.1566L46.9817 36.8837L16.5471 66.1049L22.6189 69.7771L71.1459 40.5215L101.807 16.7644L106.76 2.92032Z" fill="#37393B"/>
<path d="M15.7816 66.1538L80.8385 105.465L24.0832 57.9782L15.7816 66.1538Z" fill="white"/>
<path fill-rule="evenodd" clip-rule="evenodd" d="M24.0412 57.3205L81.3425 105.264L80.3957 105.709L15.0196 66.2051L24.0412 57.3205ZM16.5435 66.1024L75.9585 102.005L24.1253 58.6359L16.5435 66.1024Z" fill="#37393B"/>
<path d="M80.8383 105.465L16.9751 64.5245L84.8535 27.7816L127.881 57.5706L85.3419 101.048L80.8383 105.465Z" fill="white"/>
<path fill-rule="evenodd" clip-rule="evenodd" d="M16.1184 64.5036L84.9081 27.2674L128.622 57.5318L85.8697 101.228L80.9423 106.06L16.1184 64.5036ZM17.8318 64.5454L80.7344 104.87L84.8087 100.874L84.8141 100.869L127.14 57.6094L84.7989 28.2958L17.8318 64.5454Z" fill="#37393B"/>
<path d="M85.1249 103.868L31.2997 72.7942L16.9752 64.5247L46.7636 36.7404L90.1168 24.3048L108.294 1.21908L175.195 39.8415L156.53 62.6453L113.665 75.3628L85.1249 103.868Z" fill="white"/>
<path fill-rule="evenodd" clip-rule="evenodd" d="M108.102 0.608277L175.933 39.7674L156.995 62.9047L114.105 75.6296L85.256 104.443L16.1993 64.5766L46.3348 36.4685L89.6494 24.044L108.102 0.608277ZM17.7512 64.4726L84.9939 103.292L113.225 75.0957L156.065 62.3856L174.458 39.9154L108.486 1.8297L90.5842 24.5654L47.1925 37.0121L17.7512 64.4726Z" fill="#37393B"/>
<path fill-rule="evenodd" clip-rule="evenodd" d="M47.4137 36.6155L113.827 74.956L112.961 75.4559L46.5477 37.1155L47.4137 36.6155Z" fill="#37393B"/>
<path fill-rule="evenodd" clip-rule="evenodd" d="M90.6584 24.1172L156.746 62.2697L155.88 62.7697L89.7924 24.6172L90.6584 24.1172Z" fill="#37393B"/>
<path fill-rule="evenodd" clip-rule="evenodd" d="M49.7366 45.2796L30.4746 64.6691L29.4121 64.3174L48.6742 44.9279L49.7366 45.2796Z" fill="#37393B"/>
<path fill-rule="evenodd" clip-rule="evenodd" d="M56.8988 49.4144L37.6367 68.8039L36.5743 68.4521L55.8364 49.0626L56.8988 49.4144Z" fill="#37393B"/>
<path fill-rule="evenodd" clip-rule="evenodd" d="M53.3177 47.347L34.0556 66.7365L32.9932 66.3848L52.2552 46.9953L53.3177 47.347Z" fill="#37393B"/>
<path fill-rule="evenodd" clip-rule="evenodd" d="M51.4729 46.2821L32.2108 65.6716L31.1484 65.3198L50.4104 45.9303L51.4729 46.2821Z" fill="#37393B"/>
<path fill-rule="evenodd" clip-rule="evenodd" d="M55.0539 48.3495L35.7919 67.739L34.7294 67.3872L53.9915 47.9977L55.0539 48.3495Z" fill="#37393B"/>
<path fill-rule="evenodd" clip-rule="evenodd" d="M64.061 53.5494L44.7989 72.9389L43.7365 72.5871L62.9985 53.1977L64.061 53.5494Z" fill="#37393B"/>
<path fill-rule="evenodd" clip-rule="evenodd" d="M60.4799 51.4818L41.2178 70.8713L40.1554 70.5195L59.4175 51.13L60.4799 51.4818Z" fill="#37393B"/>
<path fill-rule="evenodd" clip-rule="evenodd" d="M58.635 50.4166L39.373 69.8061L38.3105 69.4543L57.5726 50.0648L58.635 50.4166Z" fill="#37393B"/>
<path fill-rule="evenodd" clip-rule="evenodd" d="M62.2161 52.4845L42.9541 71.874L41.8916 71.5222L61.1537 52.1327L62.2161 52.4845Z" fill="#37393B"/>
<path fill-rule="evenodd" clip-rule="evenodd" d="M71.2233 57.6842L51.9613 77.0737L50.8988 76.7219L70.1609 57.3324L71.2233 57.6842Z" fill="#37393B"/>
<path fill-rule="evenodd" clip-rule="evenodd" d="M67.6421 55.6163L48.38 75.0058L47.3176 74.654L66.5796 55.2645L67.6421 55.6163Z" fill="#37393B"/>
<path fill-rule="evenodd" clip-rule="evenodd" d="M65.7972 54.5519L46.5352 73.9413L45.4727 73.5896L64.7348 54.2001L65.7972 54.5519Z" fill="#37393B"/>
<path fill-rule="evenodd" clip-rule="evenodd" d="M69.3783 56.6185L50.1162 76.008L49.0538 75.6562L68.3159 56.2667L69.3783 56.6185Z" fill="#37393B"/>
<path fill-rule="evenodd" clip-rule="evenodd" d="M78.3853 61.8185L59.1233 81.208L58.0608 80.8562L77.3229 61.4667L78.3853 61.8185Z" fill="#37393B"/>
<path fill-rule="evenodd" clip-rule="evenodd" d="M74.8044 59.7516L55.5423 79.1411L54.4799 78.7893L73.742 59.3998L74.8044 59.7516Z" fill="#37393B"/>
<path fill-rule="evenodd" clip-rule="evenodd" d="M72.9596 58.6861L53.6975 78.0756L52.6351 77.7239L71.8971 58.3344L72.9596 58.6861Z" fill="#37393B"/>
<path fill-rule="evenodd" clip-rule="evenodd" d="M76.5407 60.7535L57.2786 80.143L56.2162 79.7912L75.4782 60.4018L76.5407 60.7535Z" fill="#37393B"/>
<path fill-rule="evenodd" clip-rule="evenodd" d="M85.5478 65.9535L66.2858 85.343L65.2233 84.9912L84.4854 65.6017L85.5478 65.9535Z" fill="#37393B"/>
<path fill-rule="evenodd" clip-rule="evenodd" d="M81.9666 63.8858L62.7045 83.2753L61.6421 82.9236L80.9041 63.5341L81.9666 63.8858Z" fill="#37393B"/>
<path fill-rule="evenodd" clip-rule="evenodd" d="M80.1217 62.8209L60.8597 82.2104L59.7972 81.8586L79.0593 62.4691L80.1217 62.8209Z" fill="#37393B"/>
<path fill-rule="evenodd" clip-rule="evenodd" d="M83.7028 64.8885L64.4408 84.278L63.3783 83.9263L82.6404 64.5368L83.7028 64.8885Z" fill="#37393B"/>
<path fill-rule="evenodd" clip-rule="evenodd" d="M92.7099 70.088L73.4478 89.4775L72.3854 89.1257L91.6474 69.7362L92.7099 70.088Z" fill="#37393B"/>
<path fill-rule="evenodd" clip-rule="evenodd" d="M89.1288 68.0206L69.8667 87.4101L68.8043 87.0583L88.0663 67.6688L89.1288 68.0206Z" fill="#37393B"/>
<path fill-rule="evenodd" clip-rule="evenodd" d="M87.2841 66.9559L68.022 86.3454L66.9596 85.9936L86.2216 66.6041L87.2841 66.9559Z" fill="#37393B"/>
<path fill-rule="evenodd" clip-rule="evenodd" d="M90.865 69.023L71.603 88.4125L70.5405 88.0608L89.8026 68.6713L90.865 69.023Z" fill="#37393B"/>
<path fill-rule="evenodd" clip-rule="evenodd" d="M99.8722 74.223L80.6101 93.6125L79.5477 93.2607L98.8098 73.8712L99.8722 74.223Z" fill="#37393B"/>
<path fill-rule="evenodd" clip-rule="evenodd" d="M101.717 75.2879L82.4549 94.6774L81.3924 94.3257L100.654 74.9362L101.717 75.2879Z" fill="#37393B"/>
<path fill-rule="evenodd" clip-rule="evenodd" d="M103.453 76.2904L84.1913 95.6799L83.1288 95.3281L102.391 75.9386L103.453 76.2904Z" fill="#37393B"/>
<path fill-rule="evenodd" clip-rule="evenodd" d="M96.2909 72.1554L77.0289 91.5449L75.9664 91.1931L95.2285 71.8036L96.2909 72.1554Z" fill="#37393B"/>
<path fill-rule="evenodd" clip-rule="evenodd" d="M94.4461 71.0904L75.1841 90.4799L74.1216 90.1282L93.3837 70.7387L94.4461 71.0904Z" fill="#37393B"/>
<path fill-rule="evenodd" clip-rule="evenodd" d="M98.0274 73.1578L78.7653 92.5473L77.7029 92.1955L96.9649 72.806L98.0274 73.1578Z" fill="#37393B"/>
<path d="M70.6377 72.6999L52.1353 62.0185L51.2129 61.486L61.0881 51.525L80.5129 62.7389L70.6377 72.6999Z" fill="white"/>
<path d="M71.3431 71.228L53.546 60.9537L61.7934 52.5589L79.5362 63.0525L71.3431 71.228Z" fill="white"/>
<path fill-rule="evenodd" clip-rule="evenodd" d="M61.6626 51.9754L80.2989 62.9973L71.4738 71.8034L52.7833 61.0134L61.6626 51.9754ZM54.3087 60.894L71.2123 70.6524L78.7736 63.1074L61.9242 53.1423L54.3087 60.894Z" fill="#37393B"/>
<path fill-rule="evenodd" clip-rule="evenodd" d="M91.3748 30.1944L59.4703 39.7169L58.9079 39.0888L90.8123 29.5663L91.3748 30.1944Z" fill="#37393B"/>
<path fill-rule="evenodd" clip-rule="evenodd" d="M92.1886 30.6641L60.2842 40.1866L59.7217 39.5585L91.6262 30.0361L92.1886 30.6641Z" fill="#37393B"/>
<path fill-rule="evenodd" clip-rule="evenodd" d="M95.5527 32.6063L63.6482 42.1287L63.0857 41.5007L94.9902 31.9782L95.5527 32.6063Z" fill="#37393B"/>
<path fill-rule="evenodd" clip-rule="evenodd" d="M93.9249 31.6666L62.0204 41.1891L61.4579 40.561L93.3624 31.0385L93.9249 31.6666Z" fill="#37393B"/>
<path fill-rule="evenodd" clip-rule="evenodd" d="M97.2889 33.609L65.3844 43.1314L64.8219 42.5033L96.7264 32.9809L97.2889 33.609Z" fill="#37393B"/>
<path fill-rule="evenodd" clip-rule="evenodd" d="M93.0568 31.1656L61.1524 40.6881L60.5899 40.06L92.4943 30.5375L93.0568 31.1656Z" fill="#37393B"/>
<path fill-rule="evenodd" clip-rule="evenodd" d="M94.7387 32.1366L62.8342 41.659L62.2718 41.0309L94.1762 31.5085L94.7387 32.1366Z" fill="#37393B"/>
<path fill-rule="evenodd" clip-rule="evenodd" d="M96.4209 33.1073L64.5164 42.6297L63.9539 42.0016L95.8584 32.4792L96.4209 33.1073Z" fill="#37393B"/>
<path fill-rule="evenodd" clip-rule="evenodd" d="M98.1029 34.0787L66.1984 43.6012L65.636 42.9731L97.5404 33.4506L98.1029 34.0787Z" fill="#37393B"/>
<path fill-rule="evenodd" clip-rule="evenodd" d="M101.467 36.0203L69.5625 45.5428L69 44.9147L100.904 35.3923L101.467 36.0203Z" fill="#37393B"/>
<path fill-rule="evenodd" clip-rule="evenodd" d="M103.149 36.9918L71.2445 46.5142L70.682 45.8862L102.586 36.3637L103.149 36.9918Z" fill="#37393B"/>
<path fill-rule="evenodd" clip-rule="evenodd" d="M104.831 37.9627L72.9265 47.4852L72.364 46.8571L104.268 37.3346L104.831 37.9627Z" fill="#37393B"/>
<path fill-rule="evenodd" clip-rule="evenodd" d="M106.513 38.9339L74.6085 48.4564L74.046 47.8283L105.951 38.3058L106.513 38.9339Z" fill="#37393B"/>
<path fill-rule="evenodd" clip-rule="evenodd" d="M108.195 39.9044L76.2905 49.4268L75.7281 48.7988L107.633 39.2763L108.195 39.9044Z" fill="#37393B"/>
<path fill-rule="evenodd" clip-rule="evenodd" d="M111.559 41.847L79.6546 51.3695L79.0921 50.7414L110.997 41.2189L111.559 41.847Z" fill="#37393B"/>
<path fill-rule="evenodd" clip-rule="evenodd" d="M112.373 42.3167L80.4686 51.8392L79.9061 51.2111L111.811 41.6886L112.373 42.3167Z" fill="#37393B"/>
<path fill-rule="evenodd" clip-rule="evenodd" d="M114.109 43.3189L82.2048 52.8414L81.6423 52.2133L113.547 42.6908L114.109 43.3189Z" fill="#37393B"/>
<path fill-rule="evenodd" clip-rule="evenodd" d="M113.241 42.8177L81.3366 52.3402L80.7741 51.7121L112.679 42.1896L113.241 42.8177Z" fill="#37393B"/>
<path fill-rule="evenodd" clip-rule="evenodd" d="M114.923 43.7889L83.0188 53.3114L82.4563 52.6833L114.361 43.1608L114.923 43.7889Z" fill="#37393B"/>
<path fill-rule="evenodd" clip-rule="evenodd" d="M118.287 45.7308L86.3828 55.2533L85.8204 54.6252L117.725 45.1027L118.287 45.7308Z" fill="#37393B"/>
<path fill-rule="evenodd" clip-rule="evenodd" d="M119.969 46.7022L88.0647 56.2247L87.5022 55.5966L119.407 46.0741L119.969 46.7022Z" fill="#37393B"/>
<path fill-rule="evenodd" clip-rule="evenodd" d="M121.651 47.6732L89.7469 57.1956L89.1844 56.5676L121.089 47.0451L121.651 47.6732Z" fill="#37393B"/>
<path fill-rule="evenodd" clip-rule="evenodd" d="M123.333 48.6441L91.4289 58.1666L90.8664 57.5385L122.771 48.016L123.333 48.6441Z" fill="#37393B"/>
<path fill-rule="evenodd" clip-rule="evenodd" d="M125.015 49.6148L93.1109 59.1373L92.5484 58.5092L124.453 48.9867L125.015 49.6148Z" fill="#37393B"/>
<path fill-rule="evenodd" clip-rule="evenodd" d="M126.698 50.5865L94.7931 60.109L94.2306 59.4809L126.135 49.9584L126.698 50.5865Z" fill="#37393B"/>
<path fill-rule="evenodd" clip-rule="evenodd" d="M128.38 51.5572L96.4751 61.0797L95.9126 60.4516L127.817 50.9291L128.38 51.5572Z" fill="#37393B"/>
<path fill-rule="evenodd" clip-rule="evenodd" d="M130.062 52.5284L98.1571 62.0509L97.5946 61.4228L129.499 51.9003L130.062 52.5284Z" fill="#37393B"/>
<path fill-rule="evenodd" clip-rule="evenodd" d="M131.744 53.4993L99.8391 63.0218L99.2767 62.3937L131.181 52.8713L131.744 53.4993Z" fill="#37393B"/>
<path fill-rule="evenodd" clip-rule="evenodd" d="M133.426 54.4705L101.521 63.993L100.959 63.3649L132.863 53.8425L133.426 54.4705Z" fill="#37393B"/>
<path fill-rule="evenodd" clip-rule="evenodd" d="M135.108 55.4412L103.203 64.9637L102.641 64.3356L134.545 54.8132L135.108 55.4412Z" fill="#37393B"/>
<path fill-rule="evenodd" clip-rule="evenodd" d="M136.79 56.4124L104.885 65.9349L104.323 65.3068L136.227 55.7844L136.79 56.4124Z" fill="#37393B"/>
<path fill-rule="evenodd" clip-rule="evenodd" d="M138.472 57.3836L106.567 66.9061L106.005 66.278L137.909 56.7555L138.472 57.3836Z" fill="#37393B"/>
<path fill-rule="evenodd" clip-rule="evenodd" d="M140.154 58.3548L108.249 67.8773L107.687 67.2492L139.591 57.7267L140.154 58.3548Z" fill="#37393B"/>
<path fill-rule="evenodd" clip-rule="evenodd" d="M141.836 59.3253L109.931 68.8477L109.369 68.2197L141.273 58.6972L141.836 59.3253Z" fill="#37393B"/>
<path fill-rule="evenodd" clip-rule="evenodd" d="M143.518 60.2965L111.613 69.8189L111.051 69.1908L142.955 59.6684L143.518 60.2965Z" fill="#37393B"/>
<path fill-rule="evenodd" clip-rule="evenodd" d="M145.037 61.1737L113.133 70.6961L112.57 70.068L144.475 60.5456L145.037 61.1737Z" fill="#37393B"/>
<path fill-rule="evenodd" clip-rule="evenodd" d="M112.217 8.19218L99.3573 24.7625L98.2395 24.4734L111.099 7.90309L112.217 8.19218Z" fill="#37393B"/>
<path fill-rule="evenodd" clip-rule="evenodd" d="M114.17 9.31986L101.31 25.8902L100.193 25.6011L113.052 9.03078L114.17 9.31986Z" fill="#37393B"/>
<path fill-rule="evenodd" clip-rule="evenodd" d="M116.123 10.4473L103.264 27.0177L102.146 26.7286L115.005 10.1582L116.123 10.4473Z" fill="#37393B"/>
<path fill-rule="evenodd" clip-rule="evenodd" d="M118.077 11.5755L105.217 28.1458L104.099 27.8567L116.959 11.2864L118.077 11.5755Z" fill="#37393B"/>
<path fill-rule="evenodd" clip-rule="evenodd" d="M120.03 12.7027L107.17 29.273L106.053 28.9839L118.912 12.4136L120.03 12.7027Z" fill="#37393B"/>
<path fill-rule="evenodd" clip-rule="evenodd" d="M121.983 13.8304L109.124 30.4007L108.006 30.1116L120.865 13.5413L121.983 13.8304Z" fill="#37393B"/>
<path fill-rule="evenodd" clip-rule="evenodd" d="M123.937 14.958L111.077 31.5284L109.959 31.2393L122.819 14.669L123.937 14.958Z" fill="#37393B"/>
<path fill-rule="evenodd" clip-rule="evenodd" d="M125.89 16.086L113.03 32.6563L111.913 32.3672L124.772 15.7969L125.89 16.086Z" fill="#37393B"/>
<path fill-rule="evenodd" clip-rule="evenodd" d="M127.843 17.2134L114.984 33.7838L113.866 33.4947L126.726 16.9243L127.843 17.2134Z" fill="#37393B"/>
<path fill-rule="evenodd" clip-rule="evenodd" d="M129.797 18.3411L116.937 34.9114L115.82 34.6224L128.679 18.052L129.797 18.3411Z" fill="#37393B"/>
<path fill-rule="evenodd" clip-rule="evenodd" d="M131.75 19.4685L118.89 36.0389L117.773 35.7498L130.632 19.1795L131.75 19.4685Z" fill="#37393B"/>
<path fill-rule="evenodd" clip-rule="evenodd" d="M133.703 20.5967L120.844 37.1671L119.726 36.878L132.586 20.3076L133.703 20.5967Z" fill="#37393B"/>
<path fill-rule="evenodd" clip-rule="evenodd" d="M135.657 21.7242L122.797 38.2945L121.68 38.0054L134.539 21.4351L135.657 21.7242Z" fill="#37393B"/>
<path fill-rule="evenodd" clip-rule="evenodd" d="M137.61 22.8518L124.751 39.4222L123.633 39.1331L136.492 22.5628L137.61 22.8518Z" fill="#37393B"/>
<path fill-rule="evenodd" clip-rule="evenodd" d="M139.563 23.9793L126.704 40.5496L125.586 40.2605L138.446 23.6902L139.563 23.9793Z" fill="#37393B"/>
<path fill-rule="evenodd" clip-rule="evenodd" d="M141.517 25.107L128.657 41.6773L127.539 41.3882L140.399 24.8179L141.517 25.107Z" fill="#37393B"/>
<path fill-rule="evenodd" clip-rule="evenodd" d="M143.47 26.2347L130.611 42.805L129.493 42.5159L142.352 25.9456L143.47 26.2347Z" fill="#37393B"/>
<path fill-rule="evenodd" clip-rule="evenodd" d="M145.423 27.3621L132.564 43.9324L131.446 43.6434L144.306 27.073L145.423 27.3621Z" fill="#37393B"/>
<path fill-rule="evenodd" clip-rule="evenodd" d="M147.377 28.4898L134.517 45.0601L133.399 44.771L146.259 28.2007L147.377 28.4898Z" fill="#37393B"/>
<path fill-rule="evenodd" clip-rule="evenodd" d="M149.33 29.6172L136.471 46.1876L135.353 45.8985L148.212 29.3281L149.33 29.6172Z" fill="#37393B"/>
<path fill-rule="evenodd" clip-rule="evenodd" d="M151.283 30.7454L138.424 47.3157L137.306 47.0267L150.166 30.4563L151.283 30.7454Z" fill="#37393B"/>
<path fill-rule="evenodd" clip-rule="evenodd" d="M153.237 31.8728L140.377 48.4432L139.259 48.1541L152.119 31.5838L153.237 31.8728Z" fill="#37393B"/>
<path fill-rule="evenodd" clip-rule="evenodd" d="M155.19 33.0005L142.331 49.5709L141.213 49.2818L154.072 32.7114L155.19 33.0005Z" fill="#37393B"/>
<path fill-rule="evenodd" clip-rule="evenodd" d="M157.143 34.1287L144.284 50.699L143.166 50.41L156.026 33.8396L157.143 34.1287Z" fill="#37393B"/>
<path fill-rule="evenodd" clip-rule="evenodd" d="M159.097 35.2561L146.237 51.8265L145.12 51.5374L157.979 34.9671L159.097 35.2561Z" fill="#37393B"/>
<path fill-rule="evenodd" clip-rule="evenodd" d="M161.05 36.3836L148.191 52.9539L147.073 52.6648L159.932 36.0945L161.05 36.3836Z" fill="#37393B"/>
<path fill-rule="evenodd" clip-rule="evenodd" d="M163.003 37.511L150.144 54.0814L149.026 53.7923L161.886 37.2219L163.003 37.511Z" fill="#37393B"/>
<path fill-rule="evenodd" clip-rule="evenodd" d="M164.957 38.6385L152.097 55.2088L150.979 54.9197L163.839 38.3494L164.957 38.6385Z" fill="#37393B"/>
<path fill-rule="evenodd" clip-rule="evenodd" d="M166.91 39.7666L154.051 56.337L152.933 56.0479L165.792 39.4776L166.91 39.7666Z" fill="#37393B"/>
<path d="M144.105 50.7736L115.619 34.3286L123.432 25.3073L151.312 41.66L144.105 50.7736Z" fill="white"/>
<path fill-rule="evenodd" clip-rule="evenodd" d="M122.468 27.524L116.879 34.4466L115.769 34.1479L121.358 27.2253L122.468 27.524Z" fill="#37393B"/>
<path fill-rule="evenodd" clip-rule="evenodd" d="M123.173 27.931L117.585 34.8536L116.474 34.5549L122.063 27.6323L123.173 27.931Z" fill="#37393B"/>
<path fill-rule="evenodd" clip-rule="evenodd" d="M123.879 28.338L118.29 35.2606L117.18 34.9619L122.768 28.0393L123.879 28.338Z" fill="#37393B"/>
<path fill-rule="evenodd" clip-rule="evenodd" d="M124.584 28.745L118.995 35.6676L117.885 35.3689L123.474 28.4463L124.584 28.745Z" fill="#37393B"/>
<path fill-rule="evenodd" clip-rule="evenodd" d="M125.289 29.1527L119.701 36.0753L118.591 35.7766L124.179 28.854L125.289 29.1527Z" fill="#37393B"/>
<path fill-rule="evenodd" clip-rule="evenodd" d="M127.406 30.3744L121.817 37.2969L120.707 36.9983L126.295 30.0757L127.406 30.3744Z" fill="#37393B"/>
<path fill-rule="evenodd" clip-rule="evenodd" d="M128.111 30.7813L122.522 37.7039L121.412 37.4052L127.001 30.4827L128.111 30.7813Z" fill="#37393B"/>
<path fill-rule="evenodd" clip-rule="evenodd" d="M128.816 31.1888L123.227 38.1114L122.117 37.8127L127.706 30.8901L128.816 31.1888Z" fill="#37393B"/>
<path fill-rule="evenodd" clip-rule="evenodd" d="M129.522 31.596L123.933 38.5186L122.823 38.2199L128.411 31.2974L129.522 31.596Z" fill="#37393B"/>
<path fill-rule="evenodd" clip-rule="evenodd" d="M130.227 32.003L124.638 38.9256L123.528 38.6269L129.117 31.7043L130.227 32.003Z" fill="#37393B"/>
<path fill-rule="evenodd" clip-rule="evenodd" d="M130.932 32.4105L125.343 39.3331L124.233 39.0344L129.822 32.1118L130.932 32.4105Z" fill="#37393B"/>
<path fill-rule="evenodd" clip-rule="evenodd" d="M144.985 40.523L139.397 47.4456L138.287 47.1469L143.875 40.2244L144.985 40.523Z" fill="#37393B"/>
<path fill-rule="evenodd" clip-rule="evenodd" d="M131.638 32.8175L126.049 39.7401L124.939 39.4414L130.527 32.5188L131.638 32.8175Z" fill="#37393B"/>
<path fill-rule="evenodd" clip-rule="evenodd" d="M145.691 40.9305L140.102 47.8531L138.992 47.5544L144.581 40.6318L145.691 40.9305Z" fill="#37393B"/>
<path fill-rule="evenodd" clip-rule="evenodd" d="M132.343 33.2249L126.754 40.1475L125.644 39.8488L131.233 32.9263L132.343 33.2249Z" fill="#37393B"/>
<path fill-rule="evenodd" clip-rule="evenodd" d="M146.396 41.3377L140.807 48.2603L139.697 47.9616L145.286 41.0391L146.396 41.3377Z" fill="#37393B"/>
<path fill-rule="evenodd" clip-rule="evenodd" d="M133.048 33.6319L127.46 40.5545L126.35 40.2558L131.938 33.3332L133.048 33.6319Z" fill="#37393B"/>
<path fill-rule="evenodd" clip-rule="evenodd" d="M133.754 34.0392L128.165 40.9617L127.055 40.6631L132.644 33.7405L133.754 34.0392Z" fill="#37393B"/>
<path fill-rule="evenodd" clip-rule="evenodd" d="M134.459 34.4464L128.87 41.369L127.76 41.0703L133.349 34.1477L134.459 34.4464Z" fill="#37393B"/>
<path fill-rule="evenodd" clip-rule="evenodd" d="M148.512 42.5592L142.924 49.4818L141.814 49.1831L147.402 42.2605L148.512 42.5592Z" fill="#37393B"/>
<path fill-rule="evenodd" clip-rule="evenodd" d="M149.218 42.9662L143.629 49.8887L142.519 49.5901L148.108 42.6675L149.218 42.9662Z" fill="#37393B"/>
<path fill-rule="evenodd" clip-rule="evenodd" d="M149.923 43.3739L144.334 50.2965L143.224 49.9978L148.813 43.0752L149.923 43.3739Z" fill="#37393B"/>
<path fill-rule="evenodd" clip-rule="evenodd" d="M150.628 43.7809L145.04 50.7034L143.93 50.4048L149.518 43.4822L150.628 43.7809Z" fill="#37393B"/>
<path fill-rule="evenodd" clip-rule="evenodd" d="M135.236 34.3154L143.748 39.2295L137.741 47.1611L128.991 42.1096L135.236 34.3154ZM130.461 41.9586L137.338 45.9284L142.291 39.3883L135.611 35.5317L130.461 41.9586Z" fill="#37393B"/>
</svg>
