<svg width="176" height="103" viewBox="0 0 176 103" fill="none" xmlns="http://www.w3.org/2000/svg">
<path d="M72.1798 101.06L13.1613 63.2199L77.8277 28.1015L118.918 56.5492L76.5323 96.9323L72.1798 101.06Z" fill="#F5F4F1" stroke="#37393B"/>
<path d="M42.5409 35.0116L13.1612 63.22L19.69 67.1685L66.48 38.9602L95.8597 16.1961L101.093 1.56839L100.627 1.29917L83.372 22.8667L42.5409 35.0116Z" fill="#F5F4F1" stroke="#37393B"/>
<path d="M13.1612 63.2199L75.2886 100.761L21.089 55.4125L13.1612 63.2199Z" fill="#F5F4F1" stroke="#37393B"/>
<path d="M75.2887 100.761L14.3012 61.6644L79.1231 26.5759L120.213 55.0236L79.5894 96.5434L75.2887 100.761Z" fill="#F5F4F1" stroke="#37393B"/>
<path d="M79.3821 99.2356L27.9806 69.5615L14.3011 61.6644L42.7481 35.1311L84.1492 23.2555L101.508 1.20932L165.397 38.0926L147.572 59.8695L106.637 72.0144L79.3821 99.2356Z" fill="#F5F4F1" stroke="#37393B"/>
<path d="M106.378 71.8649L42.9554 35.2508" stroke="#37393B"/>
<path d="M147.365 59.7499L84.2529 23.3154" stroke="#37393B"/>
<path d="M26.6853 61.6345L45.08 43.1181" stroke="#37393B"/>
<path d="M33.525 65.5831L51.9197 47.0667" stroke="#37393B"/>
<path d="M30.1051 63.6087L48.4998 45.0923" stroke="#37393B"/>
<path d="M28.3434 62.5918L46.7381 44.0754" stroke="#37393B"/>
<path d="M31.7632 64.5659L50.1579 46.0495" stroke="#37393B"/>
<path d="M40.3646 69.5317L58.7593 51.0152" stroke="#37393B"/>
<path d="M36.9448 67.5573L55.3395 49.0409" stroke="#37393B"/>
<path d="M35.1831 66.5403L53.5778 48.0239" stroke="#37393B"/>
<path d="M38.6029 68.5146L56.9976 49.9982" stroke="#37393B"/>
<path d="M47.2043 73.4802L65.5991 54.9638" stroke="#37393B"/>
<path d="M43.7845 71.5059L62.1793 52.9895" stroke="#37393B"/>
<path d="M42.0228 70.4889L60.4175 51.9725" stroke="#37393B"/>
<path d="M45.4426 72.4632L63.8373 53.9467" stroke="#37393B"/>
<path d="M54.0441 77.4288L72.4388 58.9124" stroke="#37393B"/>
<path d="M50.6243 75.4544L69.019 56.938" stroke="#37393B"/>
<path d="M48.8625 74.4374L67.2573 55.921" stroke="#37393B"/>
<path d="M52.2823 76.4116L70.6771 57.8952" stroke="#37393B"/>
<path d="M60.8839 81.3774L79.2786 62.8609" stroke="#37393B"/>
<path d="M57.464 79.403L75.8587 60.8866" stroke="#37393B"/>
<path d="M55.7021 78.386L74.0969 59.8696" stroke="#37393B"/>
<path d="M59.1219 80.3602L77.5167 61.8438" stroke="#37393B"/>
<path d="M67.7235 85.3259L86.1182 66.8095" stroke="#37393B"/>
<path d="M64.3037 83.3516L82.6984 64.8352" stroke="#37393B"/>
<path d="M62.542 82.3346L80.9367 63.8182" stroke="#37393B"/>
<path d="M65.9618 84.3089L84.3565 65.7925" stroke="#37393B"/>
<path d="M74.5634 89.2745L92.9581 70.7581" stroke="#37393B"/>
<path d="M76.325 90.2915L94.7197 71.7751" stroke="#37393B"/>
<path d="M77.9832 91.2487L96.3779 72.7323" stroke="#37393B"/>
<path d="M71.1433 87.3001L89.538 68.7837" stroke="#37393B"/>
<path d="M69.3816 86.2832L87.7763 67.7668" stroke="#37393B"/>
<path d="M72.8015 88.2574L91.1962 69.741" stroke="#37393B"/>
<path d="M65.5472 69.4718L47.8779 59.2713L46.997 58.7628L56.4275 49.2503L74.9777 59.9593L65.5472 69.4718Z" fill="#F5F4F1"/>
<path d="M66.2209 68.066L49.2252 58.2543L57.1012 50.2376L74.0451 60.2585L66.2209 68.066Z" fill="#F5F4F1" stroke="#37393B"/>
<path d="M83.372 22.8667L83.9419 23.1958M42.5409 35.0116L42.6963 35.1013" stroke="#37393B"/>
<path d="M54.6141 37.6738L85.082 28.5801" stroke="#37393B"/>
<path d="M55.3914 38.1225L85.8592 29.0289" stroke="#37393B"/>
<path d="M58.6039 39.9772L89.0717 30.8836" stroke="#37393B"/>
<path d="M57.0494 39.0798L87.5173 29.9861" stroke="#37393B"/>
<path d="M60.262 40.9344L90.7298 31.8407" stroke="#37393B"/>
<path d="M56.2203 38.6011L86.6882 29.5075" stroke="#37393B"/>
<path d="M57.8267 39.5285L88.2945 30.4348" stroke="#37393B"/>
<path d="M59.4329 40.4558L89.9007 31.3621" stroke="#37393B"/>
<path d="M61.0392 41.3831L91.507 32.2895" stroke="#37393B"/>
<path d="M64.2518 43.2378L94.7197 34.1441" stroke="#37393B"/>
<path d="M65.8582 44.1651L96.326 35.0714" stroke="#37393B"/>
<path d="M67.4645 45.0924L97.9323 35.9987" stroke="#37393B"/>
<path d="M69.0708 46.0197L99.5387 36.926" stroke="#37393B"/>
<path d="M70.677 46.947L101.145 37.8533" stroke="#37393B"/>
<path d="M73.8895 48.8017L104.357 39.708" stroke="#37393B"/>
<path d="M74.667 49.2504L105.135 40.1567" stroke="#37393B"/>
<path d="M76.325 50.2076L106.793 41.1139" stroke="#37393B"/>
<path d="M75.4958 49.729L105.964 40.6353" stroke="#37393B"/>
<path d="M77.1023 50.6562L107.57 41.5626" stroke="#37393B"/>
<path d="M80.3148 52.5109L110.783 43.4172" stroke="#37393B"/>
<path d="M81.921 53.4382L112.389 44.3445" stroke="#37393B"/>
<path d="M83.5273 54.3655L113.995 45.2718" stroke="#37393B"/>
<path d="M85.1337 55.2929L115.602 46.1992" stroke="#37393B"/>
<path d="M86.74 56.2202L117.208 47.1265" stroke="#37393B"/>
<path d="M88.3464 57.1475L118.814 48.0538" stroke="#37393B"/>
<path d="M89.9526 58.0748L120.42 48.9811" stroke="#37393B"/>
<path d="M91.559 59.0021L122.027 49.9084" stroke="#37393B"/>
<path d="M93.1653 59.9294L123.633 50.8357" stroke="#37393B"/>
<path d="M94.7715 60.8567L125.239 51.763" stroke="#37393B"/>
<path d="M96.3778 61.7841L126.846 52.6904" stroke="#37393B"/>
<path d="M97.9841 62.7114L128.452 53.6177" stroke="#37393B"/>
<path d="M99.5903 63.6387L130.058 54.545" stroke="#37393B"/>
<path d="M101.197 64.566L131.665 55.4723" stroke="#37393B"/>
<path d="M102.803 65.4934L133.271 56.3997" stroke="#37393B"/>
<path d="M104.409 66.4206L134.877 57.327" stroke="#37393B"/>
<path d="M105.86 67.2582L136.328 58.1645" stroke="#37393B"/>
<path d="M92.4399 23.5547L104.72 7.73051" stroke="#37393B"/>
<path d="M94.3051 24.6316L106.586 8.80736" stroke="#37393B"/>
<path d="M96.1705 25.7085L108.451 9.88428" stroke="#37393B"/>
<path d="M98.036 26.7853L110.316 10.9611" stroke="#37393B"/>
<path d="M99.9012 27.8623L112.182 12.0381" stroke="#37393B"/>
<path d="M101.767 28.9391L114.047 13.1149" stroke="#37393B"/>
<path d="M103.632 30.016L115.912 14.1918" stroke="#37393B"/>
<path d="M105.498 31.0929L117.778 15.2687" stroke="#37393B"/>
<path d="M107.363 32.1697L119.643 16.3455" stroke="#37393B"/>
<path d="M109.228 33.2466L121.509 17.4224" stroke="#37393B"/>
<path d="M111.093 34.3235L123.374 18.4993" stroke="#37393B"/>
<path d="M112.959 35.4003L125.239 19.5761" stroke="#37393B"/>
<path d="M114.824 36.4773L127.105 20.6531" stroke="#37393B"/>
<path d="M116.69 37.5542L128.97 21.73" stroke="#37393B"/>
<path d="M118.555 38.631L130.835 22.8068" stroke="#37393B"/>
<path d="M120.42 39.708L132.701 23.8838" stroke="#37393B"/>
<path d="M122.286 40.7849L134.566 24.9607" stroke="#37393B"/>
<path d="M124.151 41.8617L136.432 26.0375" stroke="#37393B"/>
<path d="M126.017 42.9385L138.297 27.1143" stroke="#37393B"/>
<path d="M127.882 44.0155L140.162 28.1913" stroke="#37393B"/>
<path d="M129.747 45.0924L142.028 29.2682" stroke="#37393B"/>
<path d="M131.613 46.1693L143.893 30.3451" stroke="#37393B"/>
<path d="M133.478 47.2461L145.759 31.4219" stroke="#37393B"/>
<path d="M135.344 48.323L147.624 32.4988" stroke="#37393B"/>
<path d="M137.209 49.3999L149.489 33.5757" stroke="#37393B"/>
<path d="M139.074 50.4768L151.355 34.6526" stroke="#37393B"/>
<path d="M140.94 51.5536L153.22 35.7294" stroke="#37393B"/>
<path d="M142.805 52.6305L155.085 36.8063" stroke="#37393B"/>
<path d="M144.67 53.7074L156.951 37.8832" stroke="#37393B"/>
<path d="M135.706 48.5324L108.503 32.8278L115.964 24.2128L142.589 39.8291L135.706 48.5324Z" fill="#F5F4F1"/>
<path d="M109.176 32.7979L114.513 26.1871" stroke="#37393B"/>
<path d="M109.85 33.1868L115.187 26.5759" stroke="#37393B"/>
<path d="M110.524 33.5757L115.861 26.9649" stroke="#37393B"/>
<path d="M111.197 33.9645L116.534 27.3537" stroke="#37393B"/>
<path d="M111.871 34.3534L117.208 27.7425" stroke="#37393B"/>
<path d="M113.892 35.5201L119.229 28.9092" stroke="#37393B"/>
<path d="M114.565 35.909L119.902 29.2981" stroke="#37393B"/>
<path d="M115.239 36.2978L120.576 29.687" stroke="#37393B"/>
<path d="M115.912 36.6867L121.25 30.0758" stroke="#37393B"/>
<path d="M116.586 37.0755L121.923 30.4647" stroke="#37393B"/>
<path d="M117.26 37.4645L122.597 30.8536" stroke="#37393B"/>
<path d="M130.68 45.212L136.017 38.6012" stroke="#37393B"/>
<path d="M117.933 37.8533L123.27 31.2425" stroke="#37393B"/>
<path d="M131.354 45.6008L136.691 38.99" stroke="#37393B"/>
<path d="M118.607 38.2422L123.944 31.6313" stroke="#37393B"/>
<path d="M132.027 45.9897L137.364 39.3789" stroke="#37393B"/>
<path d="M119.28 38.6311L124.617 32.0202" stroke="#37393B"/>
<path d="M119.954 39.02L125.291 32.4091" stroke="#37393B"/>
<path d="M120.628 39.4088L125.965 32.7979" stroke="#37393B"/>
<path d="M134.048 47.1563L139.385 40.5455" stroke="#37393B"/>
<path d="M134.722 47.5453L140.059 40.9345" stroke="#37393B"/>
<path d="M135.395 47.9341L140.732 41.3233" stroke="#37393B"/>
<path d="M136.069 48.323L141.406 41.7121" stroke="#37393B"/>
<path d="M129.437 44.494L121.975 40.1865L127.416 33.3962L134.67 37.584L129.437 44.494Z" stroke="#37393B"/>
</svg>
