<svg width="181" height="115" viewBox="0 0 181 115" fill="none" xmlns="http://www.w3.org/2000/svg">
<path d="M0.603548 42.2545L18.4669 65.7644L12.2293 71.8547L44.2804 114.037L54.0859 113.089L91.2651 96.7788L93.3969 99.5845L107.701 103.887L122.471 97.4076L114.899 87.4425L115.075 86.3334L115.584 86.11L132.933 108.943L140.967 110.578L169.488 98.0661L171.64 91.9618L154.291 69.1293L154.419 69.0734L156.172 69.594L163.597 79.3656L179.895 72.2158L180.16 61.3928L142.228 11.4707L140.072 10.8683L132.574 0.999999L116.531 8.03806L116.266 18.8611L118.545 21.8602L79.5833 38.9527L77.3045 35.9535L64.7094 30.7721L48.7936 37.7543L56.2918 47.6226L55.646 49.4539L55.1367 49.6773L37.2734 26.1675L30.2441 24.7364L2.48705 36.9133L0.603548 42.2545Z" fill="white"/>
<path fill-rule="evenodd" clip-rule="evenodd" d="M132.734 0.383788L140.369 10.4319L142.524 11.0343L180.664 61.2298L180.387 72.5458L163.437 79.9816L155.873 70.0267L155.522 69.9224L172.201 91.8738L169.887 98.4368L141.022 111.1L132.649 109.395L115.503 86.8289L115.426 87.3099L123.253 97.6104L107.733 104.419L93.0972 100.016L91.1052 97.3948L54.2136 113.579L44.051 114.561L11.564 71.8054L17.8015 65.7151L0.0423608 42.3423L2.0876 36.5424L30.1884 24.2147L37.5576 25.715L55.2677 49.0232L55.7306 47.7104L48.0115 37.5513L64.7031 30.2288L77.6203 35.5427L79.7431 38.3365L117.763 21.6573L115.762 19.0239L116.039 7.70784L132.734 0.383788ZM117.023 8.36809L116.77 18.698L119.327 22.063L79.4235 39.5687L76.9885 36.3641L64.7156 31.3153L49.5757 37.9571L56.853 47.5347L56.0455 49.8246L54.9769 50.2934L36.9892 26.6198L30.2997 25.2578L2.88646 37.284L1.16471 42.1665L19.1322 65.8134L12.8946 71.9038L44.5098 113.512L53.9582 112.599L91.4249 96.1626L93.6966 99.1524L107.669 103.355L121.689 97.2046L114.372 87.575L114.624 85.9852L115.744 85.4938L133.217 108.49L140.911 110.057L169.088 97.6952L171.079 92.0496L153.509 68.9263L154.386 68.5419L156.472 69.1612L163.757 78.7494L179.403 71.8856L179.656 61.5557L141.931 11.9069L139.776 11.3045L132.414 1.61601L117.023 8.36809Z" fill="#37393B"/>
<path fill-rule="evenodd" clip-rule="evenodd" d="M19.7112 68.2058L19.1113 67.4163L20.0271 67.0145L20.627 67.8041L19.7112 68.2058ZM22.1109 71.3639L20.9111 69.7849L21.8268 69.3831L23.0266 70.9622L22.1109 71.3639ZM24.5105 74.5221L23.3107 72.943L24.2264 72.5413L25.4263 74.1203L24.5105 74.5221ZM26.9101 77.6802L25.7103 76.1011L26.6261 75.6994L27.8259 77.2785L26.9101 77.6802ZM29.3098 80.8384L28.1099 79.2593L29.0257 78.8575L30.2255 80.4366L29.3098 80.8384ZM31.7094 83.9965L30.5096 82.4174L31.4253 82.0157L32.6251 83.5948L31.7094 83.9965ZM34.109 87.1546L32.9092 85.5756L33.825 85.1738L35.0248 86.7529L34.109 87.1546ZM36.5087 90.3128L35.3088 88.7337L36.2246 88.332L37.4244 89.911L36.5087 90.3128ZM38.9083 93.4709L37.7085 91.8919L38.6242 91.4901L39.824 93.0692L38.9083 93.4709ZM41.3079 96.6291L40.1081 95.05L41.0239 94.6483L42.2237 96.2273L41.3079 96.6291ZM43.7075 99.7872L42.5077 98.2081L43.4235 97.8064L44.6233 99.3855L43.7075 99.7872ZM46.1072 102.945L44.9074 101.366L45.8231 100.965L47.0229 102.544L46.1072 102.945ZM48.5068 106.103L47.307 104.524L48.2228 104.123L49.4226 105.702L48.5068 106.103ZM50.9064 109.262L49.7066 107.683L50.6224 107.281L51.8222 108.86L50.9064 109.262ZM52.7062 111.63L52.1063 110.841L53.022 110.439L53.6219 111.228L52.7062 111.63Z" fill="#37393B"/>
<path fill-rule="evenodd" clip-rule="evenodd" d="M153.601 69.9783L152.678 70.3832L152.276 69.4675L153.199 69.0625L153.601 69.9783ZM150.832 71.1932L148.985 72.0031L148.584 71.0873L150.43 70.2774L150.832 71.1932ZM147.139 72.813L145.293 73.623L144.891 72.7072L146.738 71.8973L147.139 72.813ZM143.447 74.4329L141.601 75.2428L141.199 74.3271L143.045 73.5171L143.447 74.4329ZM139.754 76.0528L137.908 76.8627L137.506 75.947L139.353 75.137L139.754 76.0528ZM136.062 77.6726L134.216 78.4826L133.814 77.5668L135.66 76.7569L136.062 77.6726ZM132.369 79.2925L130.523 80.1025L130.121 79.1867L131.968 78.3768L132.369 79.2925ZM128.677 80.9124L126.831 81.7223L126.429 80.8066L128.275 79.9966L128.677 80.9124ZM124.985 82.5323L123.138 83.3422L122.737 82.4264L124.583 81.6165L124.985 82.5323ZM121.292 84.1521L119.446 84.9621L119.044 84.0463L120.89 83.2364L121.292 84.1521ZM117.6 85.772L116.677 86.177L116.275 85.2612L117.198 84.8562L117.6 85.772ZM114.512 87.1266L113.584 87.5338L113.182 86.6181L114.11 86.2108L114.512 87.1266ZM111.727 88.3484L109.87 89.163L109.468 88.2473L111.325 87.4327L111.727 88.3484ZM108.013 89.9776L106.156 90.7922L105.754 89.8765L107.611 89.0619L108.013 89.9776ZM104.299 91.6068L102.443 92.4214L102.041 91.5056L103.898 90.691L104.299 91.6068ZM100.586 93.236L98.7289 94.0506L98.3271 93.1348L100.184 92.3202L100.586 93.236ZM96.872 94.8652L95.0152 95.6798L94.6134 94.764L96.4703 93.9494L96.872 94.8652ZM93.1583 96.4943L92.2299 96.9016L91.8282 95.9859L92.7566 95.5786L93.1583 96.4943Z" fill="#37393B"/>
<path fill-rule="evenodd" clip-rule="evenodd" d="M156.584 68.5252L155.666 68.9278L155.061 68.1316L155.979 67.729L156.584 68.5252ZM160.255 66.9146L158.42 67.7199L157.815 66.9237L159.65 66.1184L160.255 66.9146ZM163.926 65.3041L162.091 66.1093L161.486 65.3131L163.321 64.5078L163.926 65.3041ZM167.598 63.6935L165.762 64.4988L165.157 63.7025L166.993 62.8973L167.598 63.6935ZM171.269 62.0829L169.433 62.8882L168.828 62.092L170.664 61.2867L171.269 62.0829ZM174.94 60.4724L173.105 61.2777L172.5 60.4814L174.335 59.6761L174.94 60.4724ZM177.694 59.2644L176.776 59.6671L176.171 58.8709L177.089 58.4682L177.694 59.2644Z" fill="#37393B"/>
<path fill-rule="evenodd" clip-rule="evenodd" d="M120.646 21.4693L119.739 21.8673L119.134 21.071L120.041 20.6731L120.646 21.4693ZM124.275 19.8773L122.46 20.6733L121.855 19.8771L123.67 19.0811L124.275 19.8773ZM127.903 18.2854L126.089 19.0814L125.484 18.2851L127.298 17.4892L127.903 18.2854ZM131.532 16.6935L129.718 17.4894L129.113 16.6932L130.927 15.8972L131.532 16.6935ZM135.161 15.1015L133.346 15.8975L132.742 15.1013L134.556 14.3053L135.161 15.1015ZM138.79 13.5096L136.975 14.3055L136.37 13.5093L138.185 12.7133L138.79 13.5096ZM141.511 12.3156L140.604 12.7136L139.999 11.9174L140.906 11.5194L141.511 12.3156Z" fill="#37393B"/>
<path fill-rule="evenodd" clip-rule="evenodd" d="M56.1437 51.3592L55.5215 50.5403L56.4373 50.1385L57.0595 50.9574L56.1437 51.3592ZM58.6326 54.6348L57.3882 52.997L58.3039 52.5953L59.5484 54.2331L58.6326 54.6348ZM61.1215 57.9104L59.8771 56.2726L60.7928 55.8709L62.0373 57.5087L61.1215 57.9104ZM63.6104 61.1861L62.366 59.5482L63.2817 59.1465L64.5262 60.7843L63.6104 61.1861ZM66.0993 64.4617L64.8549 62.8239L65.7706 62.4221L67.0151 64.0599L66.0993 64.4617ZM68.5882 67.7373L67.3438 66.0995L68.2595 65.6977L69.504 67.3356L68.5882 67.7373ZM71.0771 71.0129L69.8327 69.3751L70.7484 68.9734L71.9929 70.6112L71.0771 71.0129ZM73.566 74.2885L72.3216 72.6507L73.2373 72.249L74.4818 73.8868L73.566 74.2885ZM76.0549 77.5642L74.8105 75.9263L75.7262 75.5246L76.9707 77.1624L76.0549 77.5642ZM78.5438 80.8398L77.2993 79.202L78.2151 78.8002L79.4596 80.438L78.5438 80.8398ZM81.0327 84.1154L79.7882 82.4776L80.704 82.0758L81.9484 83.7137L81.0327 84.1154ZM83.5216 87.391L82.2771 85.7532L83.1929 85.3515L84.4373 86.9893L83.5216 87.391ZM86.0105 90.6666L84.766 89.0288L85.6818 88.6271L86.9262 90.2649L86.0105 90.6666ZM88.4994 93.9423L87.2549 92.3045L88.1707 91.9027L89.4151 93.5405L88.4994 93.9423ZM90.366 96.399L89.7438 95.5801L90.6596 95.1783L91.2818 95.9972L90.366 96.399Z" fill="#37393B"/>
<path fill-rule="evenodd" clip-rule="evenodd" d="M80.3356 40.7462L79.7134 39.9272L80.6291 39.5255L81.2514 40.3444L80.3356 40.7462ZM82.8245 44.0218L81.5801 42.384L82.4958 41.9822L83.7403 43.62L82.8245 44.0218ZM85.3134 47.2974L84.0689 45.6596L84.9847 45.2578L86.2291 46.8957L85.3134 47.2974ZM87.8023 50.573L86.5578 48.9352L87.4736 48.5335L88.718 50.1713L87.8023 50.573ZM90.2912 53.8486L89.0467 52.2108L89.9625 51.8091L91.2069 53.4469L90.2912 53.8486ZM92.7801 57.1243L91.5356 55.4864L92.4514 55.0847L93.6958 56.7225L92.7801 57.1243ZM95.269 60.3999L94.0245 58.7621L94.9403 58.3603L96.1847 59.9981L95.269 60.3999ZM97.7579 63.6755L96.5134 62.0377L97.4292 61.6359L98.6736 63.2738L97.7579 63.6755ZM100.247 66.9511L99.0023 65.3133L99.9181 64.9116L101.163 66.5494L100.247 66.9511ZM102.736 70.2267L101.491 68.5889L102.407 68.1872L103.651 69.825L102.736 70.2267ZM105.225 73.5024L103.98 71.8646L104.896 71.4628L106.14 73.1006L105.225 73.5024ZM107.713 76.778L106.469 75.1402L107.385 74.7384L108.629 76.3762L107.713 76.778ZM110.202 80.0536L108.958 78.4158L109.874 78.0141L111.118 79.6519L110.202 80.0536ZM112.691 83.3292L111.447 81.6914L112.363 81.2897L113.607 82.9275L112.691 83.3292ZM114.558 85.7859L113.936 84.967L114.851 84.5653L115.474 85.3842L114.558 85.7859Z" fill="#37393B"/>
<path fill-rule="evenodd" clip-rule="evenodd" d="M119.297 23.6539L118.675 22.835L119.591 22.4332L120.213 23.2521L119.297 23.6539ZM121.786 26.9295L120.542 25.2917L121.458 24.8899L122.702 26.5277L121.786 26.9295ZM124.275 30.2051L123.031 28.5673L123.946 28.1656L125.191 29.8034L124.275 30.2051ZM126.764 33.4807L125.52 31.8429L126.435 31.4412L127.68 33.079L126.764 33.4807ZM129.253 36.7563L128.008 35.1185L128.924 34.7168L130.169 36.3546L129.253 36.7563ZM131.742 40.032L130.497 38.3942L131.413 37.9924L132.658 39.6302L131.742 40.032ZM134.231 43.3076L132.986 41.6698L133.902 41.268L135.146 42.9059L134.231 43.3076ZM136.72 46.5832L135.475 44.9454L136.391 44.5437L137.635 46.1815L136.72 46.5832ZM139.208 49.8588L137.964 48.221L138.88 47.8193L140.124 49.4571L139.208 49.8588ZM141.697 53.1345L140.453 51.4966L141.369 51.0949L142.613 52.7327L141.697 53.1345ZM144.186 56.4101L142.942 54.7723L143.858 54.3705L145.102 56.0083L144.186 56.4101ZM146.675 59.6857L145.431 58.0479L146.346 57.6461L147.591 59.284L146.675 59.6857ZM149.164 62.9613L147.92 61.3235L148.835 60.9218L150.08 62.5596L149.164 62.9613ZM151.653 66.2369L150.408 64.5991L151.324 64.1974L152.569 65.8352L151.653 66.2369ZM153.52 68.6936L152.897 67.8747L153.813 67.473L154.435 68.2919L153.52 68.6936Z" fill="#37393B"/>
<path fill-rule="evenodd" clip-rule="evenodd" d="M135.83 108.091L134.947 108.478L134.342 107.682L135.225 107.295L135.83 108.091ZM139.361 106.542L137.595 107.316L136.99 106.52L138.756 105.746L139.361 106.542ZM142.891 104.993L141.126 105.768L140.521 104.971L142.286 104.197L142.891 104.993ZM146.422 103.444L144.656 104.219L144.051 103.423L145.817 102.648L146.422 103.444ZM149.952 101.896L148.187 102.67L147.582 101.874L149.347 101.099L149.952 101.896ZM153.483 100.347L151.717 101.121L151.112 100.325L152.878 99.5505L153.483 100.347ZM157.013 98.7979L155.248 99.5723L154.643 98.7761L156.408 98.0017L157.013 98.7979ZM160.544 97.249L158.779 98.0235L158.174 97.2272L159.939 96.4528L160.544 97.249ZM164.074 95.7002L162.309 96.4746L161.704 95.6784L163.469 94.904L164.074 95.7002ZM167.605 94.1514L165.84 94.9258L165.235 94.1296L167 93.3551L167.605 94.1514ZM170.253 92.9897L169.37 93.377L168.765 92.5807L169.648 92.1935L170.253 92.9897Z" fill="#37393B"/>
<path fill-rule="evenodd" clip-rule="evenodd" d="M35.7652 27.5041L34.8421 27.9091L34.4404 26.9933L35.3635 26.5884L35.7652 27.5041ZM32.9959 28.719L31.1496 29.529L30.7479 28.6132L32.5941 27.8033L32.9959 28.719ZM29.3034 30.3389L27.4572 31.1488L27.0555 30.2331L28.9017 29.4232L29.3034 30.3389ZM25.611 31.9588L23.7647 32.7687L23.363 31.853L25.2092 31.043L25.611 31.9588ZM21.9185 33.5787L20.0723 34.3886L19.6706 33.4728L21.5168 32.6629L21.9185 33.5787ZM18.2261 35.1985L16.3798 36.0085L15.9781 35.0927L17.8243 34.2828L18.2261 35.1985ZM14.5336 36.8184L12.6874 37.6283L12.2857 36.7126L14.1319 35.9026L14.5336 36.8184ZM10.8412 38.4383L8.99494 39.2482L8.5932 38.3324L10.4394 37.5225L10.8412 38.4383ZM7.14871 40.0581L5.30249 40.8681L4.90075 39.9523L6.74697 39.1424L7.14871 40.0581ZM3.45626 41.678L2.53315 42.083L2.13141 41.1672L3.05452 40.7623L3.45626 41.678Z" fill="#37393B"/>
<path fill-rule="evenodd" clip-rule="evenodd" d="M53.555 50.9175L52.6319 51.3224L52.2301 50.4067L53.1532 50.0017L53.555 50.9175ZM50.7856 52.1324L48.9394 52.9423L48.5377 52.0265L50.3839 51.2166L50.7856 52.1324ZM47.0932 53.7522L45.247 54.5622L44.8452 53.6464L46.6914 52.8365L47.0932 53.7522ZM43.4007 55.3721L41.5545 56.182L41.1528 55.2663L42.999 54.4564L43.4007 55.3721ZM39.7083 56.992L37.8621 57.8019L37.4603 56.8862L39.3065 56.0762L39.7083 56.992ZM36.0158 58.6119L34.1696 59.4218L33.7679 58.506L35.6141 57.6961L36.0158 58.6119ZM32.3234 60.2317L30.4772 61.0417L30.0754 60.1259L31.9216 59.316L32.3234 60.2317ZM28.6309 61.8516L26.7847 62.6615L26.383 61.7458L28.2292 60.9358L28.6309 61.8516ZM24.9385 63.4715L23.0923 64.2814L22.6905 63.3657L24.5367 62.5557L24.9385 63.4715ZM21.246 65.0913L20.3229 65.4963L19.9212 64.5806L20.8443 64.1756L21.246 65.0913Z" fill="#37393B"/>
<path fill-rule="evenodd" clip-rule="evenodd" d="M78.7656 39.8574L77.8743 40.2484L77.4726 39.3327L78.3639 38.9417L78.7656 39.8574ZM76.0918 41.0304L74.3092 41.8124L73.9075 40.8967L75.69 40.1147L76.0918 41.0304ZM72.5266 42.5944L70.7441 43.3764L70.3423 42.4607L72.1249 41.6787L72.5266 42.5944ZM68.9615 44.1584L67.179 44.9404L66.7772 44.0247L68.5598 43.2427L68.9615 44.1584ZM65.3964 45.7225L63.6138 46.5045L63.2121 45.5887L64.9946 44.8067L65.3964 45.7225ZM61.8313 47.2865L60.0487 48.0685L59.647 47.1527L61.4295 46.3707L61.8313 47.2865ZM58.2661 48.8505L57.3749 49.2415L56.9731 48.3257L57.8644 47.9347L58.2661 48.8505Z" fill="#37393B"/>
</svg>
