<svg width="257" height="149" viewBox="0 0 257 149" fill="none" xmlns="http://www.w3.org/2000/svg">
<path d="M13.2132 54.0056L35.2273 76.0179L27.5404 81.7203L67.0391 121.216L79.1231 120.328L124.941 105.057L127.569 107.684L145.197 111.712L163.398 105.646L154.067 96.3152L154.284 95.2767L154.912 95.0675L176.292 116.446L186.192 117.977L221.34 106.262L223.993 100.547L202.613 79.1685L202.77 79.1162L204.931 79.6036L214.081 88.7528L234.166 82.0584L234.492 71.9249L187.746 25.1828L185.09 24.6187L175.849 15.379L156.078 21.9688L155.752 32.1023L158.56 34.9105L110.545 50.9141L107.737 48.106L92.2151 43.2547L72.601 49.7921L81.8415 59.0318L81.0457 60.7464L80.4181 60.9556L58.4039 38.9434L49.7412 37.6034L15.5343 49.0047L13.2132 54.0056Z" fill="#F5F4F1" stroke="#37393B"/>
<path d="M36.5862 77.3768L77.9873 118.774" stroke="#37393B" stroke-dasharray="2 2"/>
<path d="M15.3436 53.4164L56.2977 39.7662M37.2672 75.3381L78.2213 61.6879M82.9287 60.1189L109.29 51.3326M125.883 104.743L153.343 95.5906M156.01 94.7015L201.515 79.5346" stroke="#37393B" stroke-dasharray="2 2"/>
<path d="M203.935 78.6073L231.081 69.5595" stroke="#37393B" stroke-dasharray="2 2"/>
<path d="M159.659 34.5444L186.491 25.6012" stroke="#37393B" stroke-dasharray="2 2"/>
<path d="M124.398 104.513L81.4568 61.5758" stroke="#37393B" stroke-dasharray="2 2"/>
<path d="M154.211 94.5764L111.27 51.6389" stroke="#37393B" stroke-dasharray="2 2"/>
<path d="M202.226 78.5727L159.285 35.6352" stroke="#37393B" stroke-dasharray="2 2"/>
<path d="M178.402 115.638L221.911 101.137" stroke="#37393B" stroke-dasharray="2 2"/>
</svg>
