<?xml version="1.0" encoding="utf-8"?>
<!-- Generator: Adobe Illustrator 25.2.1, SVG Export Plug-In . SVG Version: 6.00 Build 0)  -->
<svg version="1.1" id="Layer_1" xmlns="http://www.w3.org/2000/svg" xmlns:xlink="http://www.w3.org/1999/xlink" x="0px" y="0px"
	 viewBox="0 0 531 435" style="enable-background:new 0 0 531 435;" xml:space="preserve">
<style type="text/css">
	.st0{fill:none;stroke:#F0C66F;stroke-width:15;}
	.st1{fill-rule:evenodd;clip-rule:evenodd;fill:#F0C66F;}
</style>
<g>
	<path class="st0" d="M108,52.5H423c30.6,0,55.4,24.8,55.4,55.4v219.3c0,30.6-24.8,55.4-55.4,55.4H108c-30.6,0-55.4-24.8-55.4-55.4
		V107.9C52.6,77.3,77.4,52.5,108,52.5z"/>
	<path class="st1" d="M207.9,341.9c-1.3-1.3-1.1-2.3-1.1-4.2c3.5-5.5,7-11,10.5-16.5c26.1-34.2,55.3-62.3,92.9-83.4
		c4.8-2.2,11.2-6,16.8-6.7c-1.3,5.4-2.6,10.8-3.9,16.4c-56.7,32.5-80.2,60.8-112.4,94.3C209.8,342.1,208.9,342.2,207.9,341.9z
		 M143.9,303.8c2.6-11.1,9.1-19.7,16.6-28c-0.6-0.7-0.6-0.7-3-5c-6,9.5-13.3,17.5-20.2,25.2c-4.3-4.4-9.5-8.6-12.7-13.8
		c8.7-9.8,18-19.4,24.6-30.9c-8.7-15.3-10.2-33.1-5.9-48c4.2-13.8,18.4-24.3,32.5-15.6c17.5,16.2,4.6,48.9-6.4,64.9
		c3.4,7.8,3.4,7.8,3.9,7.9c5.3-7.8,10.6-15.7,15.2-24.1c2.4-5.6,2.4-5.6,6.2-16.3c0.5-2.1,0.9-4,1.4-6
		c21.3-11.2,21.3-11.2,21.9-11.2c0,1.5-0.3,1.7-4.6,26.1l-7.7,39.9c-1.4,7.8,4.3,0.6,5.3-1.4c4-4.8,10.1,0,7,6.6
		c-4.4,8.4-12.6,23.6-24.1,20.7c-7.5-4.2-6-10.9-6-19.2c0.2-2.9,2.9-18.5,2.6-18.8c-8.4,10.3-8.4,10.3-10.5,12.3
		c0.3,2.5,2.4,10.2,3.7,16.7c2.1,14.6-0.7,30.7-13,39.4C152.9,334.2,141.5,319.9,143.9,303.8z M164.9,311.1
		c-5.7-1.7-1.8-13.3,2.5-21c0.2,0,0.4,0,0.6,0C170.1,293.5,172.4,311,164.9,311.1z M336.8,298c-10.1,1-16.6-7.4-14.5-20.4
		l26.1-116.3c-7.5-7.4-22.8-8.3-26.2,2.2c-0.7,14.4,11.5,21.6,9.2,37.7c0.2,0.2-0.7,4.5-2.8,7.8c-10.2,17.3-48,37.8-57.4,8.6
		l17.3-29.4c1.5-1,1.6,1.4,1.8,2.5c2.9,32.3,26.7,21.4,21.5,4c-2.5-5.2-2.5-5.2-6.7-12.4c-5.3-16.4,1.6-26.7,15.8-32.5
		c13.9-4.5,37.4-8,47,6.7l-23.8,111.9c-3.4,12.7,0.2,15.6,11.7-2.7c6.6-2.2,8.1,1.2,8.1,7C360.8,286.3,350.7,297,336.8,298z
		 M219.9,254.6c3.8-19.2,7.4-38.8,11.8-57.8c7.3-3.6,14.5-7,21.9-10.5c-4.1,20.2-8.7,40.5-13.1,60.6c-1.4,7.1,3.8,1.8,6.7-1.4
		c3.4-5.2,9.2-1.7,7.5,2.5C249,263.8,217.4,284.9,219.9,254.6z M355.8,236.4c1.2-5.8,2.4-11.6,3.6-17.3c12.8-11.4,30.4-18.4,47-21.2
		c0,6.5-2.9,14.5-4.2,20.9c-1.7,0.8-1.7,0.8-16.4,5.2C375.7,227.9,365.7,231.9,355.8,236.4z M161.2,231.4
		c-1.7-7.8-2.1-14.5-0.2-21.7c2.3-6.2,4.2-4.9,4.4,0.9c0.6,7.6-0.6,12.8-3.6,20.8C161.6,231.4,161.4,231.4,161.2,231.4z
		 M193.4,209.3c-4.3-1.3-5.4-5.4-2.9-9.2c4.4-2.9,4.4-2.9,12.7-7.3c-0.5-0.5-0.7-0.6-1.5-1.3c-28.6-29.1,4.8-79.9,41.8-64.9
		c14.2,10.1,13.9,29.4,4.6,43.5c3.7-1.5,11.8-6.4,16.2-5.9c1.8,4.2,0.8,7.6-1.2,11.8c-34.6,16.9-37.1,18.4-38.6,18.8
		c-9.5,4.7-19,9.3-28.4,14C195.3,208.9,194.3,209.1,193.4,209.3z M215,186.6c1.4-2.7,2.9-5.4,4.3-8.1c-6.1-9.8-13.3-26.2-1.2-34.4
		c6-3.6,11.8-2.3,14.1,3.7c1.9,5.1,1.5,16.8-4.2,19.2c-1.7,0-4-0.5-5.5-0.9c-5.5,4.8,2.1,16.4,10,11.4
		C231.5,179.4,216.1,186,215,186.6z M275.8,154.8c49.2-25.1,49.2-25.1,57.3-29.1c-11.2-1.7-22.8-3.7-34.1-5.1
		c-1.8,1.3-13.3,12.1-15.9,6.7c0.7-9.2,14.8-28.5,25.3-28.5c11.9,2.3,23.8,4.8,35.7,7.2c4.3-0.7,6.8-2.7,10.3-5.3
		c3.5-4.9,12.7-7.7,10.2,1.5c-3.5,4.1-7,8.3-10.4,12.5c0.8,0,7.1-3.1,9.1-3.7c0.8-0.7,0.8-0.7,22-10c8.6-3.3,8.7,9.4,3.2,12.1
		c-35.5,17.1-71.1,34.2-106.5,51.4C276.4,168.1,270.9,160.7,275.8,154.8z"/>
</g>
</svg>
