<svg width="69" height="60" viewBox="0 0 69 60" fill="none" xmlns="http://www.w3.org/2000/svg">
<path fill-rule="evenodd" clip-rule="evenodd" d="M20.3933 59.9587C20.0783 59.6393 20.1228 59.3884 20.1228 58.9327C20.9796 57.5879 21.8364 56.2422 22.6917 54.898C29.0694 46.5565 36.2348 39.6965 45.4294 34.5455C46.6009 33.9979 48.1786 33.0867 49.5303 32.9047C49.2146 34.2265 48.8989 35.548 48.5834 36.8932C34.7144 44.8187 28.9603 51.7204 21.0694 59.8895C20.8677 60.0085 20.6425 60.0311 20.3933 59.9587ZM4.73292 50.6586C5.36293 47.9465 6.96315 45.8505 8.78899 43.8221C8.63104 43.662 8.63104 43.662 8.04477 42.5908C6.57676 44.8982 4.77818 46.8656 3.10991 48.7438C2.05068 47.6733 0.789117 46.6474 0 45.3713C2.14084 42.9778 4.41752 40.6305 6.01737 37.8272C3.89826 34.0866 3.51985 29.7494 4.57496 26.1132C5.59651 22.7465 9.07609 20.1772 12.5285 22.3063C16.811 26.2491 13.6558 34.2265 10.9516 38.1462C11.7851 40.0375 11.7851 40.0375 11.8981 40.0837C13.205 38.17 14.4898 36.2544 15.6171 34.2038C16.203 32.8359 16.203 32.8359 17.1264 30.2376C17.2389 29.7362 17.352 29.2578 17.4639 28.7792C22.6696 26.0435 22.6696 26.0435 22.8268 26.0435C22.8268 26.4079 22.7598 26.4545 21.7007 32.4029L19.8068 42.1351C19.4565 44.0268 20.8671 42.271 21.1147 41.793C22.0939 40.6214 23.5771 41.7956 22.8268 43.4112C21.7456 45.4621 19.7404 49.1772 16.9233 48.4486C15.0757 47.422 15.4589 45.7815 15.4589 43.7536C15.504 43.0474 16.1573 39.2409 16.0893 39.1717C14.039 41.6791 14.039 41.6791 13.52 42.1808C13.5885 42.7962 14.1062 44.6652 14.4218 46.2603C14.9435 49.8174 14.2576 53.7433 11.2444 55.8786C6.9472 58.0702 4.1379 54.5794 4.73292 50.6586ZM9.86983 52.4369C8.47939 52.0146 9.42016 49.2006 10.4786 47.3089C10.5235 47.3089 10.5692 47.3089 10.6362 47.3089C11.1525 48.149 11.7076 52.4214 9.86983 52.4369ZM51.941 49.246C49.4613 49.4903 47.8824 47.4385 48.3811 44.2777L54.7807 15.9018C52.952 14.0995 49.2106 13.8681 48.3586 16.4487C48.1852 19.9581 51.1727 21.7123 50.6117 25.6337C50.6576 25.6792 50.4397 26.7281 49.9363 27.5481C47.4308 31.7708 38.1849 36.7735 35.8746 29.6446L40.1106 22.4656C40.481 22.2322 40.5125 22.8135 40.5612 23.0816C41.2698 30.9599 47.109 28.3059 45.8122 24.0606C45.2035 22.7842 45.2035 22.7842 44.1674 21.0295C42.8784 17.0325 44.5538 14.52 48.0428 13.0981C51.4456 12.0042 57.1917 11.1387 59.5581 14.739L53.7328 42.0436C52.9094 45.1322 53.7839 45.8592 56.6058 41.3824C58.2288 40.851 58.5974 41.6784 58.5888 43.0922C57.8228 46.3965 55.3662 48.9952 51.941 49.246ZM23.3461 38.6473C24.2695 33.9753 25.1484 29.1894 26.2304 24.5401C28.0101 23.6732 29.7899 22.8304 31.5933 21.9876C30.6014 26.9097 29.4745 31.8791 28.3933 36.7786C28.0391 38.5004 29.3225 37.2184 30.0355 36.4404C30.86 35.1596 32.2773 36.0278 31.8649 37.0577C30.4616 40.8839 22.7305 46.0464 23.3461 38.6473ZM56.6058 34.2038C56.8992 32.7911 57.1917 31.3773 57.4847 29.9878C60.6166 27.2064 64.921 25.4963 69 24.8133C69 26.4079 68.3011 28.3466 67.9629 29.9193C67.5356 30.124 67.5356 30.124 63.9525 31.1954C61.4737 32.1289 59.0171 33.1095 56.6058 34.2038ZM8.96893 32.9951C8.55578 31.091 8.45224 29.4589 8.92288 27.7012C9.49115 26.1918 9.94443 26.5057 10.006 27.9306C10.1563 29.7941 9.86957 31.0525 9.12612 32.9951C9.05911 32.9951 9.01382 32.9951 8.96893 32.9951ZM16.8551 27.5943C15.7974 27.2743 15.5258 26.2717 16.1573 25.3598C17.2389 24.6536 17.2389 24.6536 19.2672 23.5826C19.1487 23.4577 19.0923 23.4479 18.9058 23.2636C11.8981 16.1748 20.0715 3.78066 29.1374 7.4231C32.6032 9.87802 32.5344 14.5987 30.2633 18.0445C31.1642 17.6794 33.1475 16.4718 34.2294 16.6088C34.6583 17.634 34.4319 18.454 33.937 19.4802C25.4634 23.6054 24.855 23.9698 24.4951 24.0606C22.1739 25.2004 19.8535 26.3399 17.5319 27.4801C17.3063 27.5027 17.0811 27.5481 16.8551 27.5943ZM22.1282 22.0558C22.4672 21.3935 22.8268 20.7335 23.1878 20.0725C21.7007 17.6794 19.9201 13.6907 22.8952 11.6844C24.3608 10.8105 25.7719 11.1325 26.3423 12.5975C26.817 13.8358 26.6978 16.7077 25.3058 17.2926C24.9002 17.2926 24.3375 17.1782 23.9541 17.064C22.6164 18.2324 24.4625 21.0585 26.4103 19.8451C26.1851 20.3003 22.3991 21.9191 22.1282 22.0558ZM37.024 14.3061C49.0575 8.17568 49.0575 8.17569 51.0621 7.21831C48.3137 6.80734 45.474 6.30674 42.7248 5.9642C42.2743 6.28358 39.4577 8.90487 38.8263 7.60573C38.9942 5.35441 42.4463 0.653497 45.0234 0.653497C47.9305 1.22332 50.8377 1.81632 53.7665 2.40826C54.8252 2.22625 55.434 1.74789 56.2904 1.11055C57.1348 -0.0768405 59.3985 -0.77679 58.7923 1.47466C57.9359 2.47744 57.0795 3.50264 56.2455 4.52884C56.4476 4.52884 57.9808 3.77699 58.4765 3.61723C58.6796 3.45761 58.6796 3.45761 63.8615 1.17832C65.9579 0.367431 65.9807 3.46751 64.6505 4.14063C55.9536 8.30567 47.2556 12.4712 38.5789 16.6766C37.1565 17.5475 35.8167 15.7368 37.024 14.3061Z" fill="#F0C66F"/>
</svg>
