<svg width="531" height="435" viewBox="0 0 531 435" fill="none" xmlns="http://www.w3.org/2000/svg">
<g filter="url(#filter0_d)">
<rect x="52.6135" y="52.5" width="425.773" height="330" stroke="#F0C66F" stroke-width="15"/>
<path fill-rule="evenodd" clip-rule="evenodd" d="M207.872 341.944C206.585 340.635 206.767 339.606 206.767 337.738C210.267 332.225 213.767 326.709 217.261 321.199C243.315 287.004 272.587 258.882 310.148 237.766C314.934 235.521 321.38 231.786 326.902 231.04C325.612 236.458 324.322 241.876 323.033 247.39C266.376 279.88 242.869 308.173 210.634 341.66C209.81 342.148 208.89 342.241 207.872 341.944ZM143.896 303.82C146.47 292.702 153.007 284.109 160.466 275.794C159.821 275.138 159.821 275.138 157.426 270.747C151.429 280.205 144.081 288.271 137.266 295.97C132.939 291.582 127.785 287.376 124.562 282.145C133.307 272.333 142.608 262.711 149.144 251.219C140.487 235.885 138.941 218.105 143.251 203.199C147.424 189.398 161.639 178.865 175.743 187.593C193.237 203.756 180.348 236.458 169.301 252.527C172.706 260.28 172.706 260.28 173.167 260.469C178.506 252.624 183.755 244.772 188.36 236.366C190.753 230.758 190.753 230.758 194.526 220.106C194.986 218.051 195.447 216.09 195.904 214.128C217.171 202.913 217.171 202.913 217.813 202.913C217.813 204.407 217.539 204.598 213.213 228.983L205.476 268.879C204.045 276.633 209.807 269.436 210.819 267.476C214.819 262.673 220.878 267.487 217.813 274.11C213.396 282.517 205.205 297.747 193.696 294.76C186.148 290.552 187.714 283.827 187.714 275.513C187.898 272.619 190.567 257.014 190.289 256.731C181.913 267.009 181.913 267.009 179.793 269.066C180.073 271.589 182.188 279.25 183.477 285.789C185.608 300.371 182.806 316.465 170.497 325.218C152.942 334.202 141.466 319.893 143.896 303.82ZM164.882 311.109C159.201 309.378 163.044 297.843 167.368 290.088C167.552 290.088 167.738 290.088 168.012 290.088C170.121 293.532 172.389 311.046 164.882 311.109ZM336.75 298.029C326.619 299.03 320.169 290.619 322.207 277.662L348.35 161.339C340.88 153.95 325.595 153.002 322.115 163.581C321.406 177.967 333.611 185.158 331.319 201.234C331.507 201.42 330.617 205.72 328.56 209.081C318.325 226.392 280.554 246.899 271.115 217.676L288.42 188.246C289.934 187.289 290.062 189.672 290.261 190.772C293.156 223.067 317.01 212.188 311.712 194.785C309.226 189.552 309.226 189.552 304.993 182.359C299.727 165.974 306.572 155.674 320.825 149.845C334.726 145.361 358.199 141.813 367.867 156.572L344.069 268.504C340.705 281.165 344.278 284.145 355.806 265.793C362.436 263.615 363.942 267.007 363.907 272.802C360.778 286.348 350.742 297.001 336.75 298.029ZM219.934 254.581C223.706 235.429 227.297 215.81 231.717 196.75C238.988 193.196 246.259 189.742 253.626 186.287C249.574 206.464 244.97 226.836 240.553 246.92C239.106 253.979 244.349 248.723 247.262 245.534C250.63 240.284 256.42 243.843 254.735 248.064C249.003 263.75 217.419 284.913 219.934 254.581ZM355.806 236.366C357.005 230.574 358.199 224.779 359.396 219.082C372.191 207.681 389.775 200.67 406.439 197.87C406.439 204.407 403.583 212.355 402.202 218.801C400.456 219.641 400.456 219.641 385.819 224.033C375.692 227.86 365.657 231.879 355.806 236.366ZM161.201 231.411C159.513 223.605 159.09 216.914 161.013 209.709C163.335 203.521 165.186 204.808 165.438 210.649C166.052 218.288 164.88 223.447 161.843 231.411C161.57 231.411 161.385 231.411 161.201 231.411ZM193.418 209.271C189.097 207.959 187.987 203.849 190.567 200.11C194.985 197.216 194.985 197.215 203.271 192.825C202.787 192.313 202.557 192.273 201.795 191.518C173.167 162.458 206.557 111.65 243.593 126.581C257.751 136.645 257.47 155.997 248.192 170.123C251.873 168.626 259.975 163.675 264.395 164.237C266.147 168.44 265.222 171.801 263.2 176.008C228.584 192.919 226.098 194.412 224.628 194.785C215.146 199.457 205.666 204.128 196.182 208.802C195.261 208.895 194.341 209.081 193.418 209.271ZM214.959 186.566C216.344 183.851 217.813 181.146 219.288 178.436C213.213 168.626 205.939 152.275 218.092 144.05C224.08 140.468 229.844 141.788 232.174 147.793C234.114 152.869 233.627 164.642 227.94 167.04C226.283 167.04 223.984 166.571 222.418 166.103C216.953 170.893 224.495 182.478 232.452 177.504C231.532 179.37 216.066 186.006 214.959 186.566ZM275.811 154.797C324.97 129.666 324.97 129.667 333.159 125.742C321.931 124.057 310.331 122.005 299.1 120.601C297.259 121.91 285.753 132.656 283.174 127.33C283.86 118.101 297.962 98.8303 308.49 98.8303C320.366 101.166 332.242 103.597 344.207 106.024C348.532 105.278 351.019 103.317 354.517 100.704C357.967 95.8364 367.215 92.967 364.738 102.197C361.24 106.307 357.741 110.51 354.334 114.717C355.16 114.717 361.423 111.635 363.448 110.98C364.278 110.325 364.278 110.325 385.447 100.982C394.011 97.6576 394.104 110.366 388.67 113.125C353.142 130.199 317.609 147.276 282.163 164.515C276.352 168.085 270.879 160.662 275.811 154.797Z" fill="#F0C66F"/>
</g>
<defs>
<filter id="filter0_d" x="0.113525" y="0" width="530.773" height="435" filterUnits="userSpaceOnUse" color-interpolation-filters="sRGB">
<feFlood flood-opacity="0" result="BackgroundImageFix"/>
<feColorMatrix in="SourceAlpha" type="matrix" values="0 0 0 0 0 0 0 0 0 0 0 0 0 0 0 0 0 0 127 0" result="hardAlpha"/>
<feOffset/>
<feGaussianBlur stdDeviation="22.5"/>
<feComposite in2="hardAlpha" operator="out"/>
<feColorMatrix type="matrix" values="0 0 0 0 0.0666667 0 0 0 0 0.0941176 0 0 0 0 0.027451 0 0 0 1 0"/>
<feBlend mode="normal" in2="BackgroundImageFix" result="effect1_dropShadow"/>
<feBlend mode="normal" in="SourceGraphic" in2="effect1_dropShadow" result="shape"/>
</filter>
</defs>
</svg>
