<svg width="120" height="24" viewBox="0 0 120 24" fill="none" xmlns="http://www.w3.org/2000/svg">
<path fill-rule="evenodd" clip-rule="evenodd" d="M12 2L15.09 8.26L22 9.27L17 14.14L18.18 21.02L12 17.77L5.82 21.02L7 14.14L2 9.27L8.91 8.26L12 2Z" fill="#F0C66F"/>
<path fill-rule="evenodd" clip-rule="evenodd" d="M36 2L39.09 8.26L46 9.27L41 14.14L42.18 21.02L36 17.77L29.82 21.02L31 14.14L26 9.27L32.91 8.26L36 2Z" fill="#F0C66F"/>
<path fill-rule="evenodd" clip-rule="evenodd" d="M60 2L63.09 8.26L70 9.27L65 14.14L66.18 21.02L60 17.77L53.82 21.02L55 14.14L50 9.27L56.91 8.26L60 2Z" fill="#F0C66F"/>
<path fill-rule="evenodd" clip-rule="evenodd" d="M84 2L87.09 8.26L94 9.27L89 14.14L90.18 21.02L84 17.77L77.82 21.02L79 14.14L74 9.27L80.91 8.26L84 2Z" fill="#F0C66F"/>
<path fill-rule="evenodd" clip-rule="evenodd" d="M108 2L111.09 8.26L118 9.27L113 14.14L114.18 21.02L108 17.77L101.82 21.02L103 14.14L98 9.27L104.91 8.26L108 2Z" fill="#FFF8EB"/>
<path d="M111.09 8.26L108 2L104.91 8.26L98 9.27L103 14.14L101.82 21.02L108 17.77L111.09 19.361V8.26Z" fill="#F0C66F"/>
</svg>
