<svg width="28" height="28" viewBox="0 0 28 28" fill="none" xmlns="http://www.w3.org/2000/svg">
<path fill-rule="evenodd" clip-rule="evenodd" d="M24.5 19.7398V23.2398C24.5027 23.8968 24.2282 24.5245 23.7441 24.9686C23.26 25.4128 22.611 25.6323 21.9567 25.5731C18.3666 25.183 14.9182 23.9563 11.8883 21.9915C9.06947 20.2002 6.67956 17.8103 4.88834 14.9915C2.91665 11.9479 1.68962 8.48262 1.30667 4.87646C1.24773 4.22414 1.46566 3.57708 1.90723 3.09335C2.34881 2.60961 2.97337 2.33374 3.62834 2.33312H7.12834C8.29951 2.3216 9.29776 3.18008 9.46167 4.33979C9.6094 5.45987 9.88336 6.55964 10.2783 7.61812C10.5989 8.47081 10.3939 9.43206 9.75334 10.0798L8.27167 11.5615C9.93249 14.4823 12.3509 16.9006 15.2717 18.5615L16.7533 17.0798C17.4011 16.4393 18.3623 16.2343 19.215 16.5548C20.2735 16.9498 21.3733 17.2237 22.4933 17.3715C23.6665 17.537 24.5294 18.5554 24.5 19.7398Z" stroke="#000" stroke-width="2" stroke-linecap="round" stroke-linejoin="round"/>
</svg>
